<?xml version="1.0" encoding="utf-8"?>
<!-- Generator: Adobe Illustrator 26.5.0, SVG Export Plug-In . SVG Version: 6.00 Build 0)  -->
<svg version="1.1" id="Layer_1" xmlns="http://www.w3.org/2000/svg" xmlns:xlink="http://www.w3.org/1999/xlink" x="0px" y="0px"
	 viewBox="0 0 599.1 300" style="enable-background:new 0 0 599.1 300;" xml:space="preserve">
<style type="text/css">
	.st0{display:none;}
	.st1{display:inline;}
	.st2{fill:#E6E7E8;}
	.st3{display:inline;fill:none;stroke:#000000;stroke-width:0.25;stroke-miterlimit:10;}
	.st4{display:inline;stroke:#000000;stroke-width:0.25;stroke-miterlimit:10;}
	.st5{fill:#D1D3D4;}
	.st6{fill:#A7A9AC;}
	.st7{display:inline;fill:#BCBEC0;}
	.st8{fill:#F1F2F2;}
	.st9{fill:#BCBEC0;}
	.st10{display:inline;fill:#E6E7E8;}
	.st11{display:inline;fill:#F1F2F2;}
	.st12{fill:#939598;}
	.st13{fill:#A7A9AC;stroke:#939598;stroke-miterlimit:10;}
	.st14{fill:#DCDBDB;}
	.st15{fill:#FFFFFF;}
	.st16{display:inline;opacity:0.3;fill:#FFFFFF;enable-background:new    ;}
	.st17{display:inline;opacity:0.1;fill:#6D6E71;enable-background:new    ;}
	.st18{display:inline;opacity:0.3;fill:url(#SVGID_1_);enable-background:new    ;}
	.st19{display:inline;fill:url(#SVGID_00000034798128287299568670000013898472354034018467_);}
	.st20{display:inline;fill:#D6D6D6;}
	.st21{display:inline;opacity:0.9;}
	
		.st22{display:inline;opacity:0.2;fill:url(#SVGID_00000039849445283799257980000005872776007508476345_);enable-background:new    ;}
	.st23{display:inline;fill:none;stroke:#000000;stroke-miterlimit:10;}
	.st24{display:inline;fill:#808285;}
	.st25{display:inline;fill:#BCBEC0;stroke:#000000;stroke-miterlimit:10;}
	.st26{display:inline;fill:#A7A9AC;}
	.st27{font-family:'VandianaPlatinLite';}
	.st28{font-size:18px;}
	.st29{font-family:'ArialMT';}
	.st30{fill:#808285;}
	.st31{fill:#BCBEC0;stroke:#000000;stroke-miterlimit:10;}
	.st32{display:inline;fill:#FFFFFF;}
	.st33{clip-path:url(#SVGID_00000035514821991274969430000006632850467162851998_);fill:#FFFFFF;}
	.st34{fill:#00AA4F;}
	.st35{display:inline;fill:#BE1E2D;stroke:#000000;stroke-width:0.25;stroke-linecap:round;stroke-miterlimit:10;}
	.st36{display:inline;fill:#BE1E2D;}
	.st37{display:inline;fill:none;stroke:#BE1E2D;stroke-width:12;stroke-linecap:round;stroke-linejoin:round;stroke-miterlimit:10;}
	.st38{fill:#BE1E2D;}
	.st39{display:inline;fill:#FFF200;}
	.st40{fill:#FFF200;}
	.st41{fill:#BE1E2D;stroke:#000000;stroke-width:0.25;stroke-linecap:round;stroke-miterlimit:10;}
	.st42{fill:#BE1E2D;stroke:#000000;stroke-width:0.25;stroke-miterlimit:10;}
	.st43{fill:none;stroke:#000000;stroke-width:0.25;stroke-linecap:round;stroke-miterlimit:10;}
</style>
<g id="Layer_1_00000021084385117344061710000012773252373916061574_" class="st0">
	<g class="st1">
		<g>
			<polygon class="st2" points="302.7,22.6 307.5,3.8 307.5,22.6 			"/>
			<polygon class="st2" points="312.3,22.6 307.5,3.8 307.5,22.6 			"/>
		</g>
		<g>
			<polygon class="st2" points="123.7,100.7 113.8,84 127.1,97.3 			"/>
			<polygon class="st2" points="130.5,93.9 113.8,84 127.1,97.3 			"/>
		</g>
		<g>
			<polygon class="st2" points="52.3,282.5 33.5,277.7 52.3,277.7 			"/>
			<polygon class="st2" points="52.3,272.9 33.5,277.7 52.3,277.7 			"/>
		</g>
		<g>
			<polygon class="st2" points="130.5,461.5 113.8,471.4 127.1,458.1 			"/>
			<polygon class="st2" points="123.7,454.7 113.8,471.4 127.1,458.1 			"/>
		</g>
		<g>
			<polygon class="st2" points="312.3,532.8 307.5,551.6 307.5,532.8 			"/>
			<polygon class="st2" points="302.7,532.8 307.5,551.6 307.5,532.8 			"/>
		</g>
		<g>
			<polygon class="st2" points="491.3,454.7 501.2,471.4 487.9,458.1 			"/>
			<polygon class="st2" points="484.5,461.5 501.2,471.4 487.9,458.1 			"/>
		</g>
		<g>
			<polygon class="st2" points="562.6,272.9 581.4,277.7 562.6,277.7 			"/>
			<polygon class="st2" points="562.6,282.5 581.4,277.7 562.6,277.7 			"/>
		</g>
		<g>
			<polygon class="st2" points="484.5,93.9 501.2,84 487.9,97.3 			"/>
			<polygon class="st2" points="491.3,100.7 501.2,84 487.9,97.3 			"/>
		</g>
	</g>
	<circle class="st3" cx="-769.7" cy="44.1" r="14.2"/>
	<circle class="st4" cx="-769.7" cy="44.1" r="8.5"/>
	<g class="st1">
		<g>
			<polygon class="st5" points="-832.6,-987.5 -832.6,-726 -846,-739.4 -843,-795.8 			"/>
			<polygon class="st6" points="-819.1,-739.4 -832.6,-726 -832.6,-987.5 -822.2,-795.8 			"/>
		</g>
		<g>
			<polygon class="st5" points="-832.6,-464.5 -832.6,-726 -846,-712.5 -843,-656.2 			"/>
			<polygon class="st6" points="-819.1,-712.5 -832.6,-726 -832.6,-464.5 -822.2,-656.2 			"/>
		</g>
		<g>
			<polygon class="st5" points="-1094.1,-726 -832.6,-726 -846,-712.5 -902.3,-715.6 			"/>
			<polygon class="st6" points="-846,-739.4 -832.6,-726 -1094.1,-726 -902.4,-736.4 			"/>
		</g>
		<g>
			<polygon class="st5" points="-571.1,-726 -832.6,-726 -819.1,-712.5 -762.8,-715.6 			"/>
			<polygon class="st6" points="-819.1,-739.4 -832.6,-726 -571.1,-726 -762.8,-736.4 			"/>
		</g>
	</g>
	<g class="st1">
		<polygon class="st5" points="-669.2,66.8 -655,328.3 -655,66.8 		"/>
		<polygon class="st6" points="-640.8,66.8 -655,328.3 -655,66.8 		"/>
	</g>
	<g class="st1">
		<polygon class="st5" points="-522.4,-20.5 -783.9,-34.7 -522.4,-34.7 		"/>
		<polygon class="st6" points="-522.4,-48.9 -783.9,-34.7 -522.4,-34.7 		"/>
	</g>
	<g class="st1">
		<polygon class="st5" points="-692.8,120.3 -431.3,106.1 -692.8,106.1 		"/>
		<polygon class="st6" points="-692.8,91.9 -431.3,106.1 -692.8,106.1 		"/>
	</g>
	<g class="st1">
		<polygon class="st5" points="-550.8,-203 -536.6,-464.5 -536.6,-203 		"/>
		<polygon class="st6" points="-522.4,-203 -536.6,-464.5 -536.6,-203 		"/>
	</g>
	<polygon class="st3" points="-593.3,-134.6 -620,-108 -633.4,-94.5 -646.9,-108 -673.5,-134.6 -643.8,-164.3 -633.4,-174.7 	"/>
	<path class="st7" d="M-279.5,455.5c-68.7,0-133.2-26.7-181.8-75.3s-75.3-113.1-75.3-181.8c0-68.7,26.7-133.2,75.3-181.8
		c48.6-48.6,113.1-75.3,181.8-75.3S-146.2-32-97.7,16.6c48.6,48.6,75.3,113.1,75.3,181.8c0,68.7-26.7,133.2-75.3,181.8
		C-146.2,428.8-210.8,455.5-279.5,455.5z M-279.5-54.7c-139.6,0-253.1,113.5-253.1,253.1c0,139.6,113.5,253.1,253.1,253.1
		c139.6,0,253.1-113.6,253.1-253.1C-26.4,58.8-139.9-54.7-279.5-54.7z"/>
	<g class="st1">
		<path class="st2" d="M45.5-386.2c0,140.9-114.2,255.1-255.1,255.1s-255.1-114.2-255.1-255.1c0-140.9,114.2-255.1,255.1-255.1
			S45.5-527.1,45.5-386.2z"/>
		<circle class="st8" cx="-209.6" cy="-386.2" r="170.1"/>
		<g>
			<g>
				<polygon class="st9" points="-329.8,-506.4 -209.6,-386.2 -222,-386.2 -246.5,-413.5 				"/>
				<polygon class="st9" points="-209.6,-398.6 -209.6,-386.2 -329.8,-506.4 -236.9,-423.1 				"/>
			</g>
			<g>
				<polygon class="st9" points="-89.4,-266 -209.6,-386.2 -209.6,-373.9 -182.3,-349.4 				"/>
				<polygon class="st9" points="-197.3,-386.2 -209.6,-386.2 -89.4,-266 -172.8,-358.9 				"/>
			</g>
			<g>
				<polygon class="st9" points="-329.8,-266 -209.6,-386.2 -209.6,-373.9 -236.9,-349.4 				"/>
				<polygon class="st9" points="-222,-386.2 -209.6,-386.2 -329.8,-266 -246.5,-358.9 				"/>
			</g>
			<g>
				<polygon class="st9" points="-89.4,-506.4 -209.6,-386.2 -197.3,-386.2 -172.8,-413.5 				"/>
				<polygon class="st9" points="-209.6,-398.6 -209.6,-386.2 -89.4,-506.4 -182.3,-423.1 				"/>
			</g>
		</g>
		<g>
			<g>
				<polygon class="st5" points="-209.6,-647.7 -209.6,-386.2 -223.1,-399.7 -220,-456 				"/>
				<polygon class="st6" points="-196.2,-399.7 -209.6,-386.2 -209.6,-647.7 -199.2,-456 				"/>
			</g>
			<g>
				<polygon class="st5" points="-209.6,-124.7 -209.6,-386.2 -223.1,-372.8 -220,-316.4 				"/>
				<polygon class="st6" points="-196.2,-372.8 -209.6,-386.2 -209.6,-124.7 -199.2,-316.4 				"/>
			</g>
			<g>
				<polygon class="st5" points="-471.1,-386.2 -209.6,-386.2 -223.1,-372.8 -279.4,-375.8 				"/>
				<polygon class="st6" points="-223.1,-399.7 -209.6,-386.2 -471.1,-386.2 -279.4,-396.6 				"/>
			</g>
			<g>
				<polygon class="st5" points="51.9,-386.2 -209.6,-386.2 -196.2,-372.8 -139.8,-375.8 				"/>
				<polygon class="st6" points="-196.2,-399.7 -209.6,-386.2 51.9,-386.2 -139.8,-396.6 				"/>
			</g>
		</g>
		<g>
			<polygon class="st9" points="-214.4,-641.3 -209.6,-660.2 -209.6,-641.3 			"/>
			<polygon class="st9" points="-204.8,-641.3 -209.6,-660.2 -209.6,-641.3 			"/>
		</g>
		<g>
			<polygon class="st9" points="-393.4,-563.2 -403.3,-579.9 -390,-566.6 			"/>
			<polygon class="st9" points="-386.6,-570 -403.3,-579.9 -390,-566.6 			"/>
		</g>
		<g>
			<polygon class="st9" points="-464.7,-381.4 -483.6,-386.2 -464.7,-386.2 			"/>
			<polygon class="st9" points="-464.7,-391 -483.6,-386.2 -464.7,-386.2 			"/>
		</g>
		<g>
			<polygon class="st9" points="-386.6,-202.4 -403.3,-192.5 -390,-205.8 			"/>
			<polygon class="st9" points="-393.4,-209.2 -403.3,-192.5 -390,-205.8 			"/>
		</g>
		<g>
			<polygon class="st9" points="-204.8,-131.1 -209.6,-112.3 -209.6,-131.1 			"/>
			<polygon class="st9" points="-214.4,-131.1 -209.6,-112.3 -209.6,-131.1 			"/>
		</g>
		<g>
			<polygon class="st9" points="-25.8,-209.2 -15.9,-192.5 -29.2,-205.8 			"/>
			<polygon class="st9" points="-32.6,-202.4 -15.9,-192.5 -29.2,-205.8 			"/>
		</g>
		<g>
			<polygon class="st9" points="45.5,-391 64.3,-386.2 45.5,-386.2 			"/>
			<polygon class="st9" points="45.5,-381.4 64.3,-386.2 45.5,-386.2 			"/>
		</g>
		<g>
			<polygon class="st9" points="-32.6,-570 -15.9,-579.9 -29.2,-566.6 			"/>
			<polygon class="st9" points="-25.8,-563.2 -15.9,-579.9 -29.2,-566.6 			"/>
		</g>
		<path class="st9" d="M-209.6-129.1c-68.7,0-133.2-26.7-181.8-75.3s-75.3-113.1-75.3-181.8c0-68.7,26.7-133.2,75.3-181.8
			c48.6-48.6,113.1-75.3,181.8-75.3S-76.4-616.6-27.8-568c48.6,48.6,75.3,113.1,75.3,181.8c0,68.7-26.7,133.2-75.3,181.8
			S-140.9-129.1-209.6-129.1z M-209.6-639.3c-139.6,0-253.1,113.5-253.1,253.1c0,139.6,113.5,253.1,253.1,253.1
			c139.6,0,253.1-113.6,253.1-253.1C43.5-525.8-70-639.3-209.6-639.3z"/>
	</g>
	<path class="st10" d="M562.6,277.7c0,140.9-114.2,255.1-255.1,255.1S52.4,418.6,52.4,277.7c0-140.9,114.2-255.1,255.1-255.1
		S562.6,136.8,562.6,277.7z"/>
	<circle class="st11" cx="307.5" cy="277.7" r="170.1"/>
	<g class="st1">
		<g>
			<polygon class="st9" points="187.3,157.5 307.5,277.7 295.1,277.7 270.6,250.4 			"/>
			<polygon class="st9" points="307.5,265.3 307.5,277.7 187.3,157.5 280.2,240.9 			"/>
		</g>
		<g>
			<polygon class="st9" points="427.7,397.9 307.5,277.7 307.5,290.1 334.8,314.6 			"/>
			<polygon class="st9" points="319.8,277.7 307.5,277.7 427.7,397.9 344.3,305 			"/>
		</g>
		<g>
			<polygon class="st9" points="187.3,397.9 307.5,277.7 307.5,290.1 280.2,314.6 			"/>
			<polygon class="st9" points="295.1,277.7 307.5,277.7 187.3,397.9 270.6,305 			"/>
		</g>
		<g>
			<polygon class="st9" points="427.7,157.5 307.5,277.7 319.8,277.7 344.3,250.4 			"/>
			<polygon class="st9" points="307.5,265.3 307.5,277.7 427.7,157.5 334.8,240.9 			"/>
		</g>
	</g>
	<g class="st1">
		<g>
			<polygon class="st5" points="307.5,16.2 307.5,277.7 294,264.3 297.1,207.9 			"/>
			<polygon class="st6" points="320.9,264.3 307.5,277.7 307.5,16.2 317.9,207.9 			"/>
		</g>
		<g>
			<polygon class="st5" points="307.5,539.2 307.5,277.7 294,291.2 297.1,347.5 			"/>
			<polygon class="st6" points="320.9,291.1 307.5,277.7 307.5,539.2 317.9,347.5 			"/>
		</g>
		<g>
			<polygon class="st5" points="46,277.7 307.5,277.7 294,291.1 237.7,288.1 			"/>
			<polygon class="st6" points="294,264.3 307.5,277.7 46,277.7 237.7,267.3 			"/>
		</g>
		<g>
			<polygon class="st5" points="569,277.7 307.5,277.7 320.9,291.1 377.3,288.1 			"/>
			<polygon class="st6" points="320.9,264.3 307.5,277.7 569,277.7 377.3,267.3 			"/>
		</g>
	</g>
	<path class="st7" d="M-93.2,972.3c-68.7,0-133.2-26.7-181.8-75.3s-75.3-113.1-75.3-181.8c0-68.7,26.7-133.2,75.3-181.8
		c48.6-48.6,113.1-75.3,181.8-75.3S40,484.8,88.6,533.4c48.6,48.6,75.3,113.1,75.3,181.8c0,68.7-26.7,133.2-75.3,181.8
		C40,945.6-24.6,972.3-93.2,972.3z M-93.2,462.1c-139.6,0-253.1,113.5-253.1,253.1c0,139.6,113.5,253.1,253.1,253.1
		c139.6,0,253.1-113.6,253.1-253.1C159.9,575.7,46.3,462.1-93.2,462.1z"/>
	<g class="st1">
		<path class="st2" d="M-596.2,647.4c0,144-116.8,260.8-260.8,260.8s-260.8-116.8-260.8-260.8c0-144,116.8-260.8,260.8-260.8
			S-596.2,503.3-596.2,647.4z"/>
		<circle class="st8" cx="-857" cy="647.4" r="170.1"/>
		<g>
			<g>
				<polygon class="st12" points="-977.2,527.2 -857,647.4 -869.3,647.4 -893.8,620.1 				"/>
				<polygon class="st12" points="-857,635 -857,647.4 -977.2,527.2 -884.3,610.5 				"/>
			</g>
			<g>
				<polygon class="st12" points="-736.8,767.6 -857,647.4 -857,659.7 -829.7,684.2 				"/>
				<polygon class="st12" points="-844.6,647.4 -857,647.4 -736.8,767.6 -820.1,674.7 				"/>
			</g>
			<g>
				<polygon class="st12" points="-977.2,767.6 -857,647.4 -857,659.7 -884.3,684.2 				"/>
				<polygon class="st12" points="-869.3,647.4 -857,647.4 -977.2,767.6 -893.8,674.7 				"/>
			</g>
			<g>
				<polygon class="st12" points="-736.8,527.2 -857,647.4 -844.6,647.4 -820.1,620.1 				"/>
				<polygon class="st12" points="-857,635 -857,647.4 -736.8,527.2 -829.7,610.5 				"/>
			</g>
		</g>
		<g>
			<polyline class="st13" points="-1041.4,463 -857,647.4 -672.6,831.8 			"/>
			<polyline class="st13" points="-1041.4,831.8 -857,647.4 -672.6,462.9 			"/>
		</g>
		<g>
			<polygon class="st14" points="-857,385.9 -857,647.4 -870.4,633.9 -867.4,577.6 			"/>
			<polygon class="st6" points="-843.5,633.9 -857,647.4 -857,385.9 -846.6,577.6 			"/>
		</g>
		<g>
			<polygon class="st14" points="-857,908.9 -857,647.4 -870.4,660.8 -867.4,717.1 			"/>
			<polygon class="st6" points="-843.5,660.8 -857,647.4 -857,908.9 -846.6,717.1 			"/>
		</g>
		<g>
			<polygon class="st14" points="-1118.5,647.4 -857,647.4 -870.4,660.8 -926.7,657.8 			"/>
			<polygon class="st6" points="-870.4,633.9 -857,647.4 -1118.5,647.4 -926.8,637 			"/>
		</g>
		<g>
			<polygon class="st14" points="-595.5,647.4 -857,647.4 -843.5,660.8 -787.2,657.8 			"/>
			<polygon class="st6" points="-843.5,633.9 -857,647.4 -595.5,647.4 -787.2,637 			"/>
		</g>
		<g>
			<circle class="st6" cx="-857" cy="386.6" r="2.8"/>
			<circle class="st6" cx="-1041.4" cy="463" r="2.8"/>
			<circle class="st6" cx="-1117.8" cy="647.4" r="2.8"/>
			<circle class="st6" cx="-1041.4" cy="831.8" r="2.8"/>
			<circle class="st6" cx="-857" cy="908.1" r="2.8"/>
			<circle class="st6" cx="-672.6" cy="831.8" r="2.8"/>
			<path class="st6" d="M-596.2,650.2c-1.6,0-2.8-1.3-2.8-2.8c0-1.6,1.3-2.8,2.8-2.8c1.6,0,2.8,1.3,2.8,2.8
				C-593.3,648.9-594.6,650.2-596.2,650.2z"/>
			<circle class="st6" cx="-672.6" cy="463" r="2.8"/>
		</g>
	</g>
	<g class="st1">
		<circle class="st15" cx="-379.3" cy="-42.6" r="2.8"/>
		<circle class="st15" cx="-520.4" cy="98.6" r="2.8"/>
		<circle class="st15" cx="-520.4" cy="298.2" r="2.8"/>
		<circle class="st15" cx="-379.3" cy="439.3" r="2.8"/>
		<circle class="st15" cx="-179.7" cy="439.3" r="2.8"/>
		<circle class="st15" cx="-38.5" cy="298.2" r="2.8"/>
		<circle class="st15" cx="-38.5" cy="98.6" r="2.8"/>
		<circle class="st15" cx="-179.7" cy="-42.6" r="2.8"/>
	</g>
	<circle class="st16" cx="198.9" cy="386.3" r="100.3"/>
	<circle class="st16" cx="416.1" cy="386.3" r="100.3"/>
	<circle class="st16" cx="416.1" cy="169.1" r="100.3"/>
	<circle class="st16" cx="198.9" cy="169.1" r="100.3"/>
	<circle class="st17" cx="307.5" cy="66.8" r="44.5"/>
	<circle class="st17" cx="96.5" cy="277.7" r="44.5"/>
	<circle class="st17" cx="307.5" cy="488.6" r="44.5"/>
	<circle class="st17" cx="518.4" cy="277.7" r="44.5"/>
</g>
<g id="Layer_2_00000025417957691506965220000001229357680461307833_" class="st0">
	<g class="st1">
		<path class="st2" d="M566.3,236.8c0,140.9-114.2,255.1-255.1,255.1S56.1,377.7,56.1,236.8c0-140.9,114.2-255.1,255.1-255.1
			S566.3,95.9,566.3,236.8z"/>
		<circle class="st8" cx="311.2" cy="236.8" r="170.1"/>
		<g>
			<g>
				<polygon class="st9" points="191,116.6 311.2,236.8 298.9,236.8 274.4,209.5 				"/>
				<polygon class="st9" points="311.2,224.4 311.2,236.8 191,116.6 283.9,199.9 				"/>
			</g>
			<g>
				<polygon class="st9" points="431.4,357 311.2,236.8 311.2,249.1 338.5,273.6 				"/>
				<polygon class="st9" points="323.6,236.8 311.2,236.8 431.4,357 348.1,264.1 				"/>
			</g>
			<g>
				<polygon class="st9" points="191,357 311.2,236.8 311.2,249.1 283.9,273.6 				"/>
				<polygon class="st9" points="298.9,236.8 311.2,236.8 191,357 274.4,264.1 				"/>
			</g>
			<g>
				<polygon class="st9" points="431.4,116.6 311.2,236.8 323.6,236.8 348.1,209.5 				"/>
				<polygon class="st9" points="311.2,224.4 311.2,236.8 431.4,116.6 338.5,199.9 				"/>
			</g>
		</g>
		<g>
			<g>
				<polygon class="st5" points="311.2,-24.7 311.2,236.8 297.8,223.3 300.8,167 				"/>
				<polygon class="st6" points="324.7,223.3 311.2,236.8 311.2,-24.7 321.6,167 				"/>
			</g>
			<g>
				<polygon class="st5" points="311.2,498.3 311.2,236.8 297.8,250.2 300.8,306.5 				"/>
				<polygon class="st6" points="324.7,250.2 311.2,236.8 311.2,498.3 321.6,306.6 				"/>
			</g>
			<g>
				<polygon class="st5" points="49.7,236.8 311.2,236.8 297.8,250.2 241.4,247.2 				"/>
				<polygon class="st6" points="297.8,223.3 311.2,236.8 49.7,236.8 241.4,226.4 				"/>
			</g>
			<g>
				<polygon class="st5" points="572.7,236.8 311.2,236.8 324.7,250.2 381,247.2 				"/>
				<polygon class="st6" points="324.7,223.3 311.2,236.8 572.7,236.8 381,226.4 				"/>
			</g>
		</g>
		<g>
			<polygon class="st9" points="311.2,-37.2 311.2,-18.4 306.4,-18.4 306.9,-20.3 			"/>
			<polygon class="st9" points="316,-18.4 311.2,-18.4 311.2,-37.2 315.5,-20.3 			"/>
		</g>
		<g>
			<polygon class="st9" points="130.8,56.4 130.8,56.4 127.4,59.7 126.4,58 117.5,43.1 129.4,54.9 			"/>
			<polygon class="st9" points="134.2,53 130.8,56.4 129.4,54.9 117.5,43.1 132.5,51.9 			"/>
		</g>
		<g>
			<polygon class="st9" points="56.1,236.8 56.1,241.5 54.2,241 37.3,236.8 			"/>
			<polygon class="st9" points="56.1,232 56.1,236.8 37.3,236.8 54.2,232.5 			"/>
		</g>
		<g>
			<polygon class="st9" points="134.2,420.5 132.5,421.6 117.5,430.5 129.4,418.6 130.8,417.2 			"/>
			<polygon class="st9" points="130.8,417.2 129.4,418.6 117.5,430.5 126.4,415.5 127.4,413.8 			"/>
		</g>
		<g>
			<polygon class="st9" points="316,491.9 315.5,493.8 311.2,510.7 311.2,491.9 			"/>
			<polygon class="st9" points="311.2,491.9 311.2,510.7 306.9,493.8 306.4,491.9 			"/>
		</g>
		<g>
			<polygon class="st9" points="504.9,430.5 493,418.6 491.6,417.2 495,413.8 496,415.5 			"/>
			<polygon class="st9" points="504.9,430.5 490,421.6 488.2,420.5 491.6,417.2 493,418.6 			"/>
		</g>
		<g>
			<polygon class="st9" points="585.2,236.8 566.4,236.8 566.4,232 568.3,232.5 			"/>
			<polygon class="st9" points="585.2,236.8 568.3,241.1 566.4,241.6 566.4,236.8 			"/>
		</g>
		<g>
			<polygon class="st9" points="504.9,43.1 493,54.9 491.6,56.4 488.2,53 490,51.9 			"/>
			<polygon class="st9" points="504.9,43.1 496,58 495,59.7 491.6,56.4 491.6,56.4 493,54.9 			"/>
		</g>
		<path class="st9" d="M568.3,232.5C567.2,166.8,541.7,105.2,496,58c-1-1-2-2.1-3-3.1c-1-1-2-2-3.1-3
			C442.8,6.3,381.2-19.3,315.5-20.3c-1.4,0-2.7,0-4,0H311c-1.4,0-2.7,0-4.1,0c-65.6,1.1-127.3,26.6-174.4,72.3c-1,1-2.1,2-3.1,3
			c-1,1-2,2-3,3.1c-45.7,47.2-71.2,108.8-72.3,174.5c0,1.4,0,2.7,0,4v0.5c0,1.4,0,2.7,0,4.1c1.1,65.6,26.6,127.3,72.3,174.4
			c1,1,2,2.1,3,3.1c1,1,2,2,3.1,3c47.2,45.7,108.8,71.2,174.4,72.3c1.4,0,2.7,0,4.1,0h0.5c1.4,0,2.7,0,4,0
			c65.6-1.1,127.3-26.6,174.4-72.3c1-1,2-2,3.1-3h0c1-1,2-2,3-3.1c45.7-47.2,71.2-108.8,72.3-174.5c0-1.4,0-2.7,0-4.1v-0.5
			C568.3,235.2,568.3,233.8,568.3,232.5z M564.3,237.2c-0.2,139.2-113.4,252.4-252.7,252.7h-0.9C171.6,489.6,58.3,376.4,58.1,237.2
			v-0.9C58.4,97.1,171.6-16.1,310.8-16.4h0.9c139.2,0.2,252.4,113.5,252.7,252.7V237.2z"/>
	</g>
	
		<linearGradient id="SVGID_1_" gradientUnits="userSpaceOnUse" x1="37.29" y1="231.3505" x2="585.1689" y2="231.3505" gradientTransform="matrix(1 0 0 -1 0 468.11)">
		<stop  offset="0" style="stop-color:#FFFFFF"/>
		<stop  offset="1" style="stop-color:#000000"/>
	</linearGradient>
	<path class="st18" d="M568.3,241.1c-1.1,65.6-26.6,127.3-72.3,174.5l8.9,15l-15-8.9c-47.2,45.7-108.8,71.2-174.4,72.3l-4.3,16.9
		l-4.3-16.9c-65.6-1.1-127.3-26.6-174.5-72.3l-15,8.9l8.9-15c-45.7-47.2-71.2-108.8-72.3-174.4l-16.9-4.3l16.9-4.3
		c1.1-65.6,26.6-127.3,72.3-174.5l-8.9-14.9l15,8.9c47.2-45.7,108.8-71.2,174.4-72.3l4.3-16.9l4.3,16.9
		C381.2-19.3,442.8,6.3,490,51.9l15-8.9L496,58c45.7,47.2,71.2,108.8,72.3,174.4l16.9,4.3L568.3,241.1z"/>
</g>
<g id="Layer_2_copy" class="st0">
	
		<radialGradient id="SVGID_00000157990318431611804350000004208525853153488567_" cx="311.2305" cy="231.347" r="255.1198" gradientTransform="matrix(1 0 0 -1 0 468.11)" gradientUnits="userSpaceOnUse">
		<stop  offset="0" style="stop-color:#6D6E71"/>
		<stop  offset="0.1287" style="stop-color:#76777A"/>
		<stop  offset="0.3424" style="stop-color:#909193"/>
		<stop  offset="0.6147" style="stop-color:#B9BABB"/>
		<stop  offset="0.932" style="stop-color:#F2F2F2"/>
		<stop  offset="1" style="stop-color:#FFFFFF"/>
	</radialGradient>
	<path style="display:inline;fill:url(#SVGID_00000157990318431611804350000004208525853153488567_);" d="M566.3,236.8
		c0,140.9-114.2,255.1-255.1,255.1S56.1,377.7,56.1,236.8c0-140.9,114.2-255.1,255.1-255.1S566.3,95.9,566.3,236.8z"/>
	<circle class="st20" cx="311.2" cy="236.8" r="170.1"/>
	<g class="st21">
		<g>
			<polygon points="348.1,264.1 431.4,357 338.5,273.6 311.2,249.1 283.9,273.6 191,357 274.4,264.1 298.9,236.8 274.4,209.5 
				191,116.6 283.9,199.9 311.2,224.4 338.5,199.9 431.4,116.6 348.1,209.5 323.6,236.8 			"/>
		</g>
	</g>
	<g class="st1">
		<g>
			<polygon points="572.7,236.8 381,247.2 324.7,250.2 324.7,250.2 321.6,306.5 311.2,498.3 300.8,306.5 297.8,250.2 297.8,250.2 
				241.4,247.2 49.7,236.8 241.4,226.4 297.8,223.3 297.8,223.3 300.8,167 311.2,-24.7 321.6,167 324.7,223.3 381,226.4 			"/>
		</g>
	</g>
	<g class="st1">
		<g>
			<g>
				<polygon points="311.2,-37.2 311.2,-18.4 306.4,-18.4 306.9,-20.3 				"/>
				<polygon points="316,-18.4 311.2,-18.4 311.2,-37.2 315.5,-20.3 				"/>
			</g>
			<g>
				<polygon points="130.8,56.4 130.8,56.4 127.4,59.7 126.4,58 117.5,43.1 129.4,54.9 				"/>
				<polygon points="134.2,53 130.8,56.4 129.4,54.9 117.5,43.1 132.5,51.9 				"/>
			</g>
			<g>
				<polygon points="56.1,236.8 56.1,241.5 54.2,241 37.3,236.8 				"/>
				<polygon points="56.1,232 56.1,236.8 37.3,236.8 54.2,232.5 				"/>
			</g>
			<g>
				<polygon points="134.2,420.5 132.5,421.6 117.5,430.5 129.4,418.6 130.8,417.2 				"/>
				<polygon points="130.8,417.2 129.4,418.6 117.5,430.5 126.4,415.5 127.4,413.8 				"/>
			</g>
			<g>
				<polygon points="316,491.9 315.5,493.8 311.2,510.7 311.2,491.9 				"/>
				<polygon points="311.2,491.9 311.2,510.7 306.9,493.8 306.4,491.9 				"/>
			</g>
			<g>
				<polygon points="504.9,430.5 493,418.6 491.6,417.2 495,413.8 496,415.5 				"/>
				<polygon points="504.9,430.5 490,421.6 488.2,420.5 491.6,417.2 493,418.6 				"/>
			</g>
			<g>
				<polygon points="585.2,236.8 566.4,236.8 566.4,232 568.3,232.5 				"/>
				<polygon points="585.2,236.8 568.3,241.1 566.4,241.6 566.4,236.8 				"/>
			</g>
			<g>
				<polygon points="504.9,43.1 493,54.9 491.6,56.4 488.2,53 490,51.9 				"/>
				<polygon points="504.9,43.1 496,58 495,59.7 491.6,56.4 491.6,56.4 493,54.9 				"/>
			</g>
		</g>
		<path d="M568.3,232.5C567.2,166.8,541.7,105.2,496,58c-1-1-2-2.1-3-3.1c-1-1-2-2-3.1-3C442.8,6.3,381.2-19.3,315.5-20.3
			c-1.4,0-2.7,0-4,0H311c-1.4,0-2.7,0-4.1,0c-65.6,1.1-127.3,26.6-174.4,72.3c-1,1-2.1,2-3.1,3c-1,1-2,2-3,3.1
			c-45.7,47.2-71.2,108.8-72.3,174.5c0,1.4,0,2.7,0,4v0.5c0,1.4,0,2.7,0,4.1c1.1,65.6,26.6,127.3,72.3,174.4c1,1,2,2.1,3,3.1
			c1,1,2,2,3.1,3c47.2,45.7,108.8,71.2,174.4,72.3c1.4,0,2.7,0,4.1,0h0.5c1.4,0,2.7,0,4,0c65.6-1.1,127.3-26.6,174.4-72.3
			c1-1,2-2,3.1-3h0c1-1,2-2,3-3.1c45.7-47.2,71.2-108.8,72.3-174.5c0-1.4,0-2.7,0-4.1v-0.5C568.3,235.2,568.3,233.8,568.3,232.5z
			 M564.3,237.2c-0.2,139.2-113.4,252.4-252.7,252.7h-0.9C171.6,489.6,58.3,376.4,58.1,237.2v-0.9C58.4,97.1,171.6-16.1,310.8-16.4
			h0.9c139.2,0.2,252.4,113.5,252.7,252.7V237.2z"/>
	</g>
	
		<linearGradient id="SVGID_00000131354374609712467340000017665918814402289055_" gradientUnits="userSpaceOnUse" x1="37.2929" y1="231.3473" x2="585.178" y2="231.3473" gradientTransform="matrix(0.7071 -0.7071 -0.7071 -0.7071 254.7406 620.4202)">
		<stop  offset="0" style="stop-color:#FFFFFF"/>
		<stop  offset="1" style="stop-color:#000000"/>
	</linearGradient>
	
		<path style="display:inline;opacity:0.2;fill:url(#SVGID_00000131354374609712467340000017665918814402289055_);enable-background:new    ;" d="
		M496.1,58c45.7,47.2,71.2,108.8,72.3,174.5l16.9,4.3l-16.9,4.3c-1.1,65.6-26.6,127.3-72.3,174.5l8.9,15l-15-8.9
		c-47.2,45.7-108.8,71.2-174.5,72.3l-4.3,16.9l-4.3-16.9c-65.6-1.1-127.3-26.6-174.4-72.3l-15,8.9l8.9-15
		C80.7,368.3,55.2,306.7,54.2,241l-16.9-4.3l16.9-4.3c1.1-65.6,26.6-127.3,72.3-174.5l-8.9-15l15,8.9
		c47.2-45.7,108.8-71.2,174.5-72.3l4.3-16.9l4.3,16.9C381.2-19.2,442.8,6.3,490,51.9l15-8.9L496.1,58z"/>
</g>
<g id="Layer_4" class="st0">
	<polygon class="st23" points="-96.4,141.8 -201.3,177.8 -96.4,177.8 	"/>
	<polygon class="st23" points="-96.4,213.6 -201.3,177.6 -96.4,177.6 	"/>
	<polygon class="st23" points="-112.5,253.4 -112.5,325.4 -217.4,289.4 	"/>
	<polygon class="st23" points="-293.1,61.1 -293.1,199.9 -587.2,199.9 -587.2,222.4 -692,186.4 -587.2,150.4 -587.2,172.9 
		-320.1,172.9 -320.1,88.1 -587.2,88.1 -587.2,61.1 	"/>
	<polygon class="st24" points="444.4,395.7 444.4,443.7 226.3,443.7 226.3,450.6 194.2,439.6 226.3,428.5 226.3,435.4 436.1,435.4 
		436.1,404 408,404 408,395.7 	"/>
	<polygon class="st25" points="-143.9,655 -143.9,737.7 -403.7,737.7 -403.7,760.2 -508.5,724.2 -403.7,688.2 -403.7,710.7 
		-170.9,710.7 -170.9,682 -211.7,682 -211.7,655 	"/>
	<rect x="-511.4" y="-83" class="st23" width="294" height="27"/>
	<rect x="-511.4" y="-194.8" class="st23" width="294" height="27"/>
	<rect x="-244.4" y="-194.8" class="st23" width="27" height="138.8"/>
	<polygon class="st23" points="-511.4,-105.5 -511.4,-33.5 -616.2,-69.5 	"/>
	<polygon class="st26" points="412.2,526.6 412.2,575.8 228.4,575.8 228.4,582.7 203.4,574.1 228.4,565.6 228.4,572.5 409,572.5 
		409,529.8 319.3,529.8 319.3,526.6 	"/>
	<polygon class="st23" points="506.8,968.8 506.8,1106.6 96.4,1106.6 96.4,1135.9 -8.4,1099.9 96.4,1063.9 96.4,1093.1 
		493.3,1093.1 493.3,982.3 423.8,982.3 423.8,968.8 	"/>
	<rect x="-60.1" y="-237.5" class="st23" width="410.4" height="13.5"/>
	<rect x="267.3" y="-361.8" class="st23" width="83" height="13.5"/>
	<rect x="336.8" y="-361.8" class="st23" width="13.5" height="137.8"/>
	<polygon class="st23" points="-60.1,-266.8 -60.1,-194.8 -164.9,-230.8 	"/>
	<text transform="matrix(1 0 0 1 140.5986 72.2091)" class="st1 st27 st28">BACK</text>
	<text transform="matrix(1 0 0 1 136.5986 -3.1244)" class="st1 st27 st28">return</text>
	<text transform="matrix(1 0 0 1 140.5986 -55.9476)" class="st1 st28" style="font-family:'Consolas';">return</text>
	<text transform="matrix(1 0 0 1 253.9321 -38.6141)" class="st1 st29 st28">return</text>
	<text transform="matrix(1 0 0 1 253.9321 -17.0141)" class="st1 st29 st28">RETURN</text>
	<text transform="matrix(1 0 0 1 253.9321 4.5859)" class="st1 st29 st28">TERUG</text>
	<text transform="matrix(1 0 0 1 253.9321 26.1859)" class="st1 st29 st28">RETOUR</text>
	<g class="st1">
		<path class="st30" d="M242.1,410.6v10.1h3.6c0.5,0,0.8,0.1,1,0.3c0.2,0.2,0.3,0.4,0.3,0.7c0,0.3-0.1,0.5-0.3,0.7
			c-0.2,0.2-0.5,0.3-1,0.3h-8.1c-0.5,0-0.8-0.1-1-0.3c-0.2-0.2-0.3-0.4-0.3-0.7c0-0.3,0.1-0.5,0.3-0.7c0.2-0.2,0.5-0.3,1-0.3h2.6
			v-23.1h-2.6c-0.5,0-0.8-0.1-1-0.3c-0.2-0.2-0.3-0.4-0.3-0.7c0-0.3,0.1-0.5,0.3-0.7c0.2-0.2,0.5-0.3,1-0.3h11.7
			c2.4,0,4.4,0.8,6.1,2.3c1.7,1.5,2.5,3.3,2.5,5.2c0,1.4-0.5,2.7-1.5,3.9c-1,1.2-2.7,2.2-5.1,3.1c1.4,1,2.6,2,3.5,3.2
			s2.6,3.7,4.7,7.4h1.5c0.5,0,0.8,0.1,1,0.3c0.2,0.2,0.3,0.4,0.3,0.7c0,0.3-0.1,0.5-0.3,0.7c-0.2,0.2-0.5,0.3-1,0.3h-2.6
			c-2.4-4.3-4.2-7.2-5.6-8.6c-1.3-1.5-2.8-2.6-4.5-3.4H242.1z M242.1,408.7h5.3c1.7,0,3.2-0.3,4.6-0.9s2.4-1.3,3-2.2
			s0.9-1.7,0.9-2.5c0-1.3-0.6-2.5-1.9-3.7s-2.9-1.8-4.7-1.8h-7.1L242.1,408.7L242.1,408.7z"/>
		<path class="st30" d="M270.4,409.6v11.1h14.9V415c0-0.5,0.1-0.8,0.3-1c0.2-0.2,0.4-0.3,0.7-0.3c0.3,0,0.5,0.1,0.7,0.3
			s0.3,0.5,0.3,1v7.6h-21.4c-0.5,0-0.8-0.1-1-0.3c-0.2-0.2-0.3-0.4-0.3-0.7c0-0.3,0.1-0.5,0.3-0.7c0.2-0.2,0.5-0.3,1-0.3h2.6v-23.1
			h-2.6c-0.5,0-0.8-0.1-1-0.3c-0.2-0.2-0.3-0.4-0.3-0.7c0-0.3,0.1-0.5,0.3-0.7c0.2-0.2,0.5-0.3,1-0.3h20.3v6.7c0,0.5-0.1,0.8-0.3,1
			c-0.2,0.2-0.4,0.3-0.7,0.3c-0.3,0-0.5-0.1-0.7-0.3c-0.2-0.2-0.3-0.5-0.3-1v-4.7h-13.9v10.1h6.9v-2.2c0-0.5,0.1-0.8,0.3-1
			c0.2-0.2,0.4-0.3,0.7-0.3c0.3,0,0.5,0.1,0.7,0.3c0.2,0.2,0.3,0.5,0.3,1v6.3c0,0.5-0.1,0.8-0.3,1c-0.2,0.2-0.4,0.3-0.7,0.3
			c-0.3,0-0.5-0.1-0.7-0.3c-0.2-0.2-0.3-0.5-0.3-1v-2.2L270.4,409.6L270.4,409.6z"/>
		<path class="st30" d="M305.9,397.6v23.1h5c0.5,0,0.8,0.1,1,0.3c0.2,0.2,0.3,0.4,0.3,0.7c0,0.3-0.1,0.5-0.3,0.7
			c-0.2,0.2-0.5,0.3-1,0.3h-12c-0.5,0-0.8-0.1-1-0.3c-0.2-0.2-0.3-0.4-0.3-0.7c0-0.3,0.1-0.5,0.3-0.7c0.2-0.2,0.5-0.3,1-0.3h5v-23.1
			h-7.9v6.7c0,0.5-0.1,0.8-0.3,1c-0.2,0.2-0.4,0.3-0.7,0.3c-0.3,0-0.5-0.1-0.7-0.3c-0.2-0.2-0.3-0.5-0.3-1v-8.6h21.7v8.6
			c0,0.5-0.1,0.8-0.3,1c-0.2,0.2-0.4,0.3-0.7,0.3s-0.5-0.1-0.7-0.3c-0.2-0.2-0.3-0.5-0.3-1v-6.7H305.9z"/>
		<path class="st30" d="M342.7,397.6v16.2c0,2.7-0.9,5-2.7,6.8c-1.8,1.8-4,2.8-6.6,2.8c-1.7,0-3.2-0.4-4.6-1.1
			c-1.3-0.8-2.5-1.9-3.4-3.4c-0.9-1.5-1.4-3.2-1.4-5.1v-16.2h-1.6c-0.5,0-0.8-0.1-1-0.3c-0.2-0.2-0.3-0.4-0.3-0.7
			c0-0.3,0.1-0.5,0.3-0.7c0.2-0.2,0.5-0.2,1-0.2h7.1c0.5,0,0.8,0.1,1,0.3c0.2,0.2,0.3,0.4,0.3,0.7c0,0.3-0.1,0.5-0.3,0.7
			c-0.2,0.2-0.5,0.3-1,0.3h-3.6v16.2c0,2.1,0.7,3.9,2.2,5.4c1.5,1.5,3.2,2.2,5.2,2.2c1.3,0,2.4-0.3,3.5-0.9c1.1-0.6,2-1.5,2.8-2.7
			c0.8-1.2,1.2-2.6,1.2-4.1v-16.2h-3.6c-0.5,0-0.8-0.1-1-0.3c-0.2-0.2-0.3-0.4-0.3-0.7c0-0.3,0.1-0.5,0.3-0.7c0.2-0.2,0.5-0.3,1-0.3
			h7.1c0.5,0,0.8,0.1,1,0.3s0.3,0.4,0.3,0.7c0,0.3-0.1,0.5-0.3,0.7c-0.2,0.2-0.5,0.3-1,0.3L342.7,397.6L342.7,397.6z"/>
		<path class="st30" d="M355.3,410.6v10.1h3.6c0.5,0,0.8,0.1,1,0.3c0.2,0.2,0.3,0.4,0.3,0.7c0,0.3-0.1,0.5-0.3,0.7
			c-0.2,0.2-0.5,0.3-1,0.3h-8.1c-0.5,0-0.8-0.1-1-0.3s-0.3-0.4-0.3-0.7c0-0.3,0.1-0.5,0.3-0.7c0.2-0.2,0.5-0.3,1-0.3h2.6v-23.1h-2.6
			c-0.5,0-0.8-0.1-1-0.3c-0.2-0.2-0.3-0.4-0.3-0.7c0-0.3,0.1-0.5,0.3-0.7s0.5-0.3,1-0.3h11.7c2.4,0,4.4,0.8,6.1,2.3
			c1.7,1.5,2.5,3.3,2.5,5.2c0,1.4-0.5,2.7-1.5,3.9c-1,1.2-2.7,2.2-5.1,3.1c1.4,1,2.6,2,3.5,3.2c1,1.2,2.6,3.7,4.7,7.4h1.5
			c0.5,0,0.8,0.1,1,0.3c0.2,0.2,0.3,0.4,0.3,0.7c0,0.3-0.1,0.5-0.3,0.7c-0.2,0.2-0.5,0.3-1,0.3h-2.6c-2.4-4.3-4.3-7.2-5.6-8.6
			c-1.3-1.5-2.8-2.6-4.5-3.4H355.3z M355.3,408.7h5.3c1.7,0,3.2-0.3,4.6-0.9c1.4-0.6,2.4-1.3,3-2.2c0.6-0.8,0.9-1.7,0.9-2.5
			c0-1.3-0.6-2.5-1.9-3.7c-1.3-1.2-2.9-1.8-4.7-1.8h-7.1L355.3,408.7L355.3,408.7z"/>
		<path class="st30" d="M399.4,422.6h-2.5l-14.3-24.1v22.2h3.6c0.5,0,0.8,0.1,1,0.3c0.2,0.2,0.3,0.4,0.3,0.7c0,0.3-0.1,0.5-0.3,0.7
			c-0.2,0.2-0.5,0.3-1,0.3h-7.1c-0.5,0-0.8-0.1-1-0.3s-0.3-0.4-0.3-0.7c0-0.3,0.1-0.5,0.3-0.7c0.2-0.2,0.5-0.3,1-0.3h1.6v-23.1h-2.6
			c-0.5,0-0.8-0.1-1-0.3c-0.2-0.2-0.3-0.4-0.3-0.7c0-0.3,0.1-0.5,0.3-0.7c0.2-0.2,0.5-0.3,1-0.3h5.1l14.3,24.2v-22.2h-3.6
			c-0.5,0-0.8-0.1-1-0.3c-0.2-0.2-0.3-0.4-0.3-0.7c0-0.3,0.1-0.5,0.3-0.7c0.2-0.2,0.5-0.3,1-0.3h7.1c0.5,0,0.8,0.1,1,0.3
			c0.2,0.2,0.3,0.4,0.3,0.7c0,0.3-0.1,0.5-0.3,0.7c-0.2,0.2-0.5,0.3-1,0.3h-1.6L399.4,422.6L399.4,422.6z"/>
	</g>
	<g class="st1">
		<path class="st30" d="M242.1,551.9V562h3.6c0.5,0,0.8,0.1,1,0.3c0.2,0.2,0.3,0.4,0.3,0.7c0,0.3-0.1,0.5-0.3,0.7
			c-0.2,0.2-0.5,0.3-1,0.3h-8.1c-0.5,0-0.8-0.1-1-0.3c-0.2-0.2-0.3-0.4-0.3-0.7c0-0.3,0.1-0.5,0.3-0.7c0.2-0.2,0.5-0.3,1-0.3h2.6
			v-23.1h-2.6c-0.5,0-0.8-0.1-1-0.3c-0.2-0.2-0.3-0.4-0.3-0.7c0-0.3,0.1-0.5,0.3-0.7c0.2-0.2,0.5-0.3,1-0.3h11.7
			c2.4,0,4.4,0.8,6.1,2.3c1.7,1.5,2.5,3.3,2.5,5.2c0,1.4-0.5,2.7-1.5,3.9c-1,1.2-2.7,2.2-5.1,3.1c1.4,1,2.6,2,3.5,3.2
			s2.6,3.7,4.7,7.4h1.5c0.5,0,0.8,0.1,1,0.3c0.2,0.2,0.3,0.4,0.3,0.7c0,0.3-0.1,0.5-0.3,0.7c-0.2,0.2-0.5,0.3-1,0.3h-2.6
			c-2.4-4.3-4.2-7.2-5.6-8.6c-1.3-1.5-2.8-2.6-4.5-3.4H242.1z M242.1,549.9h5.3c1.7,0,3.2-0.3,4.6-0.9s2.4-1.3,3-2.2
			s0.9-1.7,0.9-2.5c0-1.3-0.6-2.5-1.9-3.7s-2.9-1.8-4.7-1.8h-7.1L242.1,549.9L242.1,549.9z"/>
		<path class="st30" d="M270.4,550.9V562h14.9v-5.7c0-0.5,0.1-0.8,0.3-1c0.2-0.2,0.4-0.3,0.7-0.3c0.3,0,0.5,0.1,0.7,0.3
			s0.3,0.5,0.3,1v7.6h-21.4c-0.5,0-0.8-0.1-1-0.3c-0.2-0.2-0.3-0.4-0.3-0.7c0-0.3,0.1-0.5,0.3-0.7c0.2-0.2,0.5-0.3,1-0.3h2.6v-23.1
			h-2.6c-0.5,0-0.8-0.1-1-0.3c-0.2-0.2-0.3-0.4-0.3-0.7c0-0.3,0.1-0.5,0.3-0.7c0.2-0.2,0.5-0.3,1-0.3h20.3v6.7c0,0.5-0.1,0.8-0.3,1
			c-0.2,0.2-0.4,0.3-0.7,0.3c-0.3,0-0.5-0.1-0.7-0.3c-0.2-0.2-0.3-0.5-0.3-1v-4.7h-13.9v10.1h6.9v-2.2c0-0.5,0.1-0.8,0.3-1
			c0.2-0.2,0.4-0.3,0.7-0.3c0.3,0,0.5,0.1,0.7,0.3c0.2,0.2,0.3,0.5,0.3,1v6.3c0,0.5-0.1,0.8-0.3,1c-0.2,0.2-0.4,0.3-0.7,0.3
			c-0.3,0-0.5-0.1-0.7-0.3c-0.2-0.2-0.3-0.5-0.3-1v-2.2L270.4,550.9L270.4,550.9z"/>
		<path class="st30" d="M305.9,538.9V562h5c0.5,0,0.8,0.1,1,0.3c0.2,0.2,0.3,0.4,0.3,0.7c0,0.3-0.1,0.5-0.3,0.7
			c-0.2,0.2-0.5,0.3-1,0.3h-12c-0.5,0-0.8-0.1-1-0.3c-0.2-0.2-0.3-0.4-0.3-0.7c0-0.3,0.1-0.5,0.3-0.7c0.2-0.2,0.5-0.3,1-0.3h5v-23.1
			h-7.9v6.7c0,0.5-0.1,0.8-0.3,1c-0.2,0.2-0.4,0.3-0.7,0.3c-0.3,0-0.5-0.1-0.7-0.3c-0.2-0.2-0.3-0.5-0.3-1v-8.6h21.7v8.6
			c0,0.5-0.1,0.8-0.3,1c-0.2,0.2-0.4,0.3-0.7,0.3s-0.5-0.1-0.7-0.3c-0.2-0.2-0.3-0.5-0.3-1v-6.7H305.9z"/>
		<path class="st30" d="M342.7,538.9v16.2c0,2.7-0.9,5-2.7,6.8c-1.8,1.8-4,2.8-6.6,2.8c-1.7,0-3.2-0.4-4.6-1.1
			c-1.3-0.8-2.5-1.9-3.4-3.4c-0.9-1.5-1.4-3.2-1.4-5.1v-16.2h-1.6c-0.5,0-0.8-0.1-1-0.3c-0.2-0.2-0.3-0.4-0.3-0.7
			c0-0.3,0.1-0.5,0.3-0.7c0.2-0.2,0.5-0.2,1-0.2h7.1c0.5,0,0.8,0.1,1,0.3c0.2,0.2,0.3,0.4,0.3,0.7c0,0.3-0.1,0.5-0.3,0.7
			c-0.2,0.2-0.5,0.3-1,0.3h-3.6v16.2c0,2.1,0.7,3.9,2.2,5.4c1.5,1.5,3.2,2.2,5.2,2.2c1.3,0,2.4-0.3,3.5-0.9c1.1-0.6,2-1.5,2.8-2.7
			c0.8-1.2,1.2-2.6,1.2-4.1v-16.2h-3.6c-0.5,0-0.8-0.1-1-0.3c-0.2-0.2-0.3-0.4-0.3-0.7c0-0.3,0.1-0.5,0.3-0.7c0.2-0.2,0.5-0.3,1-0.3
			h7.1c0.5,0,0.8,0.1,1,0.3s0.3,0.4,0.3,0.7c0,0.3-0.1,0.5-0.3,0.7c-0.2,0.2-0.5,0.3-1,0.3L342.7,538.9L342.7,538.9z"/>
		<path class="st30" d="M355.3,551.9V562h3.6c0.5,0,0.8,0.1,1,0.3c0.2,0.2,0.3,0.4,0.3,0.7c0,0.3-0.1,0.5-0.3,0.7
			c-0.2,0.2-0.5,0.3-1,0.3h-8.1c-0.5,0-0.8-0.1-1-0.3s-0.3-0.4-0.3-0.7c0-0.3,0.1-0.5,0.3-0.7c0.2-0.2,0.5-0.3,1-0.3h2.6v-23.1h-2.6
			c-0.5,0-0.8-0.1-1-0.3c-0.2-0.2-0.3-0.4-0.3-0.7c0-0.3,0.1-0.5,0.3-0.7s0.5-0.3,1-0.3h11.7c2.4,0,4.4,0.8,6.1,2.3
			c1.7,1.5,2.5,3.3,2.5,5.2c0,1.4-0.5,2.7-1.5,3.9c-1,1.2-2.7,2.2-5.1,3.1c1.4,1,2.6,2,3.5,3.2c1,1.2,2.6,3.7,4.7,7.4h1.5
			c0.5,0,0.8,0.1,1,0.3c0.2,0.2,0.3,0.4,0.3,0.7c0,0.3-0.1,0.5-0.3,0.7c-0.2,0.2-0.5,0.3-1,0.3h-2.6c-2.4-4.3-4.3-7.2-5.6-8.6
			c-1.3-1.5-2.8-2.6-4.5-3.4H355.3z M355.3,549.9h5.3c1.7,0,3.2-0.3,4.6-0.9c1.4-0.6,2.4-1.3,3-2.2c0.6-0.8,0.9-1.7,0.9-2.5
			c0-1.3-0.6-2.5-1.9-3.7c-1.3-1.2-2.9-1.8-4.7-1.8h-7.1L355.3,549.9L355.3,549.9z"/>
		<path class="st30" d="M399.4,563.9h-2.5l-14.3-24.1V562h3.6c0.5,0,0.8,0.1,1,0.3c0.2,0.2,0.3,0.4,0.3,0.7c0,0.3-0.1,0.5-0.3,0.7
			c-0.2,0.2-0.5,0.3-1,0.3h-7.1c-0.5,0-0.8-0.1-1-0.3s-0.3-0.4-0.3-0.7c0-0.3,0.1-0.5,0.3-0.7c0.2-0.2,0.5-0.3,1-0.3h1.6v-23.1h-2.6
			c-0.5,0-0.8-0.1-1-0.3c-0.2-0.2-0.3-0.4-0.3-0.7c0-0.3,0.1-0.5,0.3-0.7c0.2-0.2,0.5-0.3,1-0.3h5.1l14.3,24.2v-22.2h-3.6
			c-0.5,0-0.8-0.1-1-0.3c-0.2-0.2-0.3-0.4-0.3-0.7c0-0.3,0.1-0.5,0.3-0.7c0.2-0.2,0.5-0.3,1-0.3h7.1c0.5,0,0.8,0.1,1,0.3
			c0.2,0.2,0.3,0.4,0.3,0.7c0,0.3-0.1,0.5-0.3,0.7c-0.2,0.2-0.5,0.3-1,0.3h-1.6L399.4,563.9L399.4,563.9z"/>
	</g>
	<polygon class="st26" points="245,337.1 245,386.2 61.1,386.2 61.1,393.2 36.2,384.6 61.1,376.1 61.1,383 241.8,383 241.8,340.3 
		231.8,340.3 231.8,337.1 	"/>
	<g class="st1">
		<path class="st30" d="M67,352v10.1h3.6c0.5,0,0.8,0.1,1,0.3c0.2,0.2,0.3,0.4,0.3,0.7c0,0.3-0.1,0.5-0.3,0.7
			c-0.2,0.2-0.5,0.3-1,0.3h-8.1c-0.5,0-0.8-0.1-1-0.3c-0.2-0.2-0.3-0.4-0.3-0.7c0-0.3,0.1-0.5,0.3-0.7c0.2-0.2,0.5-0.3,1-0.3H65V339
			h-2.6c-0.5,0-0.8-0.1-1-0.3c-0.2-0.2-0.3-0.4-0.3-0.7c0-0.3,0.1-0.5,0.3-0.7c0.2-0.2,0.5-0.3,1-0.3h11.7c2.4,0,4.4,0.8,6.1,2.3
			c1.7,1.5,2.5,3.3,2.5,5.2c0,1.4-0.5,2.7-1.5,3.9c-1,1.2-2.7,2.2-5.1,3.1c1.4,1,2.6,2,3.5,3.2c1,1.2,2.6,3.7,4.7,7.4h1.5
			c0.5,0,0.8,0.1,1,0.3c0.2,0.2,0.3,0.4,0.3,0.7c0,0.3-0.1,0.5-0.3,0.7c-0.2,0.2-0.5,0.3-1,0.3h-2.6c-2.4-4.3-4.2-7.2-5.6-8.6
			c-1.3-1.5-2.8-2.6-4.5-3.4H67z M67,350.1h5.3c1.7,0,3.2-0.3,4.6-0.9s2.4-1.3,3-2.2s0.9-1.7,0.9-2.5c0-1.3-0.6-2.5-1.9-3.7
			s-2.9-1.8-4.7-1.8H67L67,350.1L67,350.1z"/>
		<path class="st30" d="M95.3,351v11.1h14.9v-5.7c0-0.5,0.1-0.8,0.3-1c0.2-0.2,0.4-0.3,0.7-0.3c0.3,0,0.5,0.1,0.7,0.3s0.3,0.5,0.3,1
			v7.6H90.7c-0.5,0-0.8-0.1-1-0.3c-0.2-0.2-0.3-0.4-0.3-0.7c0-0.3,0.1-0.5,0.3-0.7c0.2-0.2,0.5-0.3,1-0.3h2.6V339h-2.6
			c-0.5,0-0.8-0.1-1-0.3c-0.2-0.2-0.3-0.4-0.3-0.7c0-0.3,0.1-0.5,0.3-0.7c0.2-0.2,0.5-0.3,1-0.3h20.3v6.7c0,0.5-0.1,0.8-0.3,1
			c-0.2,0.2-0.4,0.3-0.7,0.3c-0.3,0-0.5-0.1-0.7-0.3c-0.2-0.2-0.3-0.5-0.3-1V339H95.3v10.1h6.9v-2.2c0-0.5,0.1-0.8,0.3-1
			c0.2-0.2,0.4-0.3,0.7-0.3c0.3,0,0.5,0.1,0.7,0.3c0.2,0.2,0.3,0.5,0.3,1v6.3c0,0.5-0.1,0.8-0.3,1c-0.2,0.2-0.4,0.3-0.7,0.3
			c-0.3,0-0.5-0.1-0.7-0.3c-0.2-0.2-0.3-0.5-0.3-1V351L95.3,351L95.3,351z"/>
		<path class="st30" d="M130.9,339v23.1h5c0.5,0,0.8,0.1,1,0.3c0.2,0.2,0.3,0.4,0.3,0.7c0,0.3-0.1,0.5-0.3,0.7
			c-0.2,0.2-0.5,0.3-1,0.3h-12c-0.5,0-0.8-0.1-1-0.3c-0.2-0.2-0.3-0.4-0.3-0.7c0-0.3,0.1-0.5,0.3-0.7c0.2-0.2,0.5-0.3,1-0.3h5V339
			H121v6.7c0,0.5-0.1,0.8-0.3,1c-0.2,0.2-0.4,0.3-0.7,0.3c-0.3,0-0.5-0.1-0.7-0.3c-0.2-0.2-0.3-0.5-0.3-1v-8.6h21.7v8.6
			c0,0.5-0.1,0.8-0.3,1c-0.2,0.2-0.4,0.3-0.7,0.3s-0.5-0.1-0.7-0.3c-0.2-0.2-0.3-0.5-0.3-1V339H130.9z"/>
		<path class="st30" d="M167.6,339v16.2c0,2.7-0.9,5-2.7,6.8c-1.8,1.8-4,2.8-6.6,2.8c-1.7,0-3.2-0.4-4.6-1.1
			c-1.3-0.8-2.5-1.9-3.4-3.4c-0.9-1.5-1.4-3.2-1.4-5.1V339h-1.6c-0.5,0-0.8-0.1-1-0.3c-0.2-0.2-0.3-0.4-0.3-0.7
			c0-0.3,0.1-0.5,0.3-0.7c0.2-0.2,0.5-0.2,1-0.2h7.1c0.5,0,0.8,0.1,1,0.3c0.2,0.2,0.3,0.4,0.3,0.7c0,0.3-0.1,0.5-0.3,0.7
			c-0.2,0.2-0.5,0.3-1,0.3h-3.6v16.2c0,2.1,0.7,3.9,2.2,5.4c1.5,1.5,3.2,2.2,5.2,2.2c1.3,0,2.4-0.3,3.5-0.9c1.1-0.6,2-1.5,2.8-2.7
			c0.8-1.2,1.2-2.6,1.2-4.1V339h-3.6c-0.5,0-0.8-0.1-1-0.3c-0.2-0.2-0.3-0.4-0.3-0.7c0-0.3,0.1-0.5,0.3-0.7c0.2-0.2,0.5-0.3,1-0.3
			h7.1c0.5,0,0.8,0.1,1,0.3s0.3,0.4,0.3,0.7c0,0.3-0.1,0.5-0.3,0.7c-0.2,0.2-0.5,0.3-1,0.3L167.6,339L167.6,339z"/>
		<path class="st30" d="M180.2,352v10.1h3.6c0.5,0,0.8,0.1,1,0.3c0.2,0.2,0.3,0.4,0.3,0.7c0,0.3-0.1,0.5-0.3,0.7
			c-0.2,0.2-0.5,0.3-1,0.3h-8.1c-0.5,0-0.8-0.1-1-0.3s-0.3-0.4-0.3-0.7c0-0.3,0.1-0.5,0.3-0.7c0.2-0.2,0.5-0.3,1-0.3h2.6V339h-2.6
			c-0.5,0-0.8-0.1-1-0.3c-0.2-0.2-0.3-0.4-0.3-0.7c0-0.3,0.1-0.5,0.3-0.7s0.5-0.3,1-0.3h11.7c2.4,0,4.4,0.8,6.1,2.3
			c1.7,1.5,2.5,3.3,2.5,5.2c0,1.4-0.5,2.7-1.5,3.9c-1,1.2-2.7,2.2-5.1,3.1c1.4,1,2.6,2,3.5,3.2c1,1.2,2.6,3.7,4.7,7.4h1.5
			c0.5,0,0.8,0.1,1,0.3c0.2,0.2,0.3,0.4,0.3,0.7c0,0.3-0.1,0.5-0.3,0.7c-0.2,0.2-0.5,0.3-1,0.3h-2.6c-2.4-4.3-4.3-7.2-5.6-8.6
			c-1.3-1.5-2.8-2.6-4.5-3.4H180.2z M180.2,350.1h5.3c1.7,0,3.2-0.3,4.6-0.9c1.4-0.6,2.4-1.3,3-2.2c0.6-0.8,0.9-1.7,0.9-2.5
			c0-1.3-0.6-2.5-1.9-3.7c-1.3-1.2-2.9-1.8-4.7-1.8h-7.1L180.2,350.1L180.2,350.1z"/>
		<path class="st30" d="M224.3,364h-2.5l-14.3-24.1v22.2h3.6c0.5,0,0.8,0.1,1,0.3c0.2,0.2,0.3,0.4,0.3,0.7c0,0.3-0.1,0.5-0.3,0.7
			c-0.2,0.2-0.5,0.3-1,0.3H204c-0.5,0-0.8-0.1-1-0.3s-0.3-0.4-0.3-0.7c0-0.3,0.1-0.5,0.3-0.7c0.2-0.2,0.5-0.3,1-0.3h1.6V339H203
			c-0.5,0-0.8-0.1-1-0.3c-0.2-0.2-0.3-0.4-0.3-0.7c0-0.3,0.1-0.5,0.3-0.7c0.2-0.2,0.5-0.3,1-0.3h5.1l14.3,24.2V339h-3.6
			c-0.5,0-0.8-0.1-1-0.3c-0.2-0.2-0.3-0.4-0.3-0.7c0-0.3,0.1-0.5,0.3-0.7c0.2-0.2,0.5-0.3,1-0.3h7.1c0.5,0,0.8,0.1,1,0.3
			c0.2,0.2,0.3,0.4,0.3,0.7c0,0.3-0.1,0.5-0.3,0.7c-0.2,0.2-0.5,0.3-1,0.3h-1.6L224.3,364L224.3,364z"/>
	</g>
	<polygon class="st25" points="-357.4,373.3 -357.4,456 -617.1,456 -617.1,478.5 -722,442.5 -617.1,406.5 -617.1,429 -384.4,429 
		-384.4,400.3 -425.1,400.3 -425.1,373.3 	"/>
	<g class="st1">
		<path class="st31" d="M-599.8,387.8v10.1h3.6c0.5,0,0.8,0.1,1,0.3c0.2,0.2,0.3,0.4,0.3,0.7c0,0.3-0.1,0.5-0.3,0.7
			c-0.2,0.2-0.5,0.3-1,0.3h-8.1c-0.5,0-0.8-0.1-1-0.3c-0.2-0.2-0.3-0.4-0.3-0.7c0-0.3,0.1-0.5,0.3-0.7c0.2-0.2,0.5-0.3,1-0.3h2.6
			v-23.1h-2.6c-0.5,0-0.8-0.1-1-0.3c-0.2-0.2-0.3-0.4-0.3-0.7c0-0.3,0.1-0.5,0.3-0.7c0.2-0.2,0.5-0.3,1-0.3h11.7
			c2.4,0,4.4,0.8,6.1,2.3c1.7,1.5,2.5,3.3,2.5,5.2c0,1.4-0.5,2.7-1.5,3.9c-1,1.2-2.7,2.2-5.1,3.1c1.4,1,2.6,2,3.5,3.2
			s2.6,3.7,4.7,7.4h1.5c0.5,0,0.8,0.1,1,0.3c0.2,0.2,0.3,0.4,0.3,0.7c0,0.3-0.1,0.5-0.3,0.7c-0.2,0.2-0.5,0.3-1,0.3h-2.6
			c-2.4-4.3-4.2-7.2-5.6-8.6c-1.3-1.5-2.8-2.6-4.5-3.4H-599.8z M-599.8,385.9h5.3c1.7,0,3.2-0.3,4.6-0.9s2.4-1.3,3-2.2
			s0.9-1.7,0.9-2.5c0-1.3-0.6-2.5-1.9-3.7s-2.9-1.8-4.7-1.8h-7.1L-599.8,385.9L-599.8,385.9z"/>
		<path class="st31" d="M-571.4,386.8v11.1h14.9v-5.7c0-0.5,0.1-0.8,0.3-1c0.2-0.2,0.4-0.3,0.7-0.3c0.3,0,0.5,0.1,0.7,0.3
			s0.3,0.5,0.3,1v7.6H-576c-0.5,0-0.8-0.1-1-0.3c-0.2-0.2-0.3-0.4-0.3-0.7c0-0.3,0.1-0.5,0.3-0.7c0.2-0.2,0.5-0.3,1-0.3h2.6v-23.1
			h-2.6c-0.5,0-0.8-0.1-1-0.3c-0.2-0.2-0.3-0.4-0.3-0.7c0-0.3,0.1-0.5,0.3-0.7c0.2-0.2,0.5-0.3,1-0.3h20.3v6.7c0,0.5-0.1,0.8-0.3,1
			c-0.2,0.2-0.4,0.3-0.7,0.3c-0.3,0-0.5-0.1-0.7-0.3c-0.2-0.2-0.3-0.5-0.3-1v-4.7h-13.9v10.1h6.9v-2.2c0-0.5,0.1-0.8,0.3-1
			c0.2-0.2,0.4-0.3,0.7-0.3c0.3,0,0.5,0.1,0.7,0.3c0.2,0.2,0.3,0.5,0.3,1v6.3c0,0.5-0.1,0.8-0.3,1c-0.2,0.2-0.4,0.3-0.7,0.3
			c-0.3,0-0.5-0.1-0.7-0.3c-0.2-0.2-0.3-0.5-0.3-1v-2.2L-571.4,386.8L-571.4,386.8z"/>
		<path class="st31" d="M-535.9,374.8v23.1h5c0.5,0,0.8,0.1,1,0.3c0.2,0.2,0.3,0.4,0.3,0.7c0,0.3-0.1,0.5-0.3,0.7
			c-0.2,0.2-0.5,0.3-1,0.3h-12c-0.5,0-0.8-0.1-1-0.3c-0.2-0.2-0.3-0.4-0.3-0.7c0-0.3,0.1-0.5,0.3-0.7c0.2-0.2,0.5-0.3,1-0.3h5v-23.1
			h-7.9v6.7c0,0.5-0.1,0.8-0.3,1c-0.2,0.2-0.4,0.3-0.7,0.3c-0.3,0-0.5-0.1-0.7-0.3c-0.2-0.2-0.3-0.5-0.3-1v-8.6h21.7v8.6
			c0,0.5-0.1,0.8-0.3,1c-0.2,0.2-0.4,0.3-0.7,0.3s-0.5-0.1-0.7-0.3c-0.2-0.2-0.3-0.5-0.3-1v-6.7H-535.9z"/>
		<path class="st31" d="M-499.2,374.8V391c0,2.7-0.9,5-2.7,6.8c-1.8,1.8-4,2.8-6.6,2.8c-1.7,0-3.2-0.4-4.6-1.1
			c-1.3-0.8-2.5-1.9-3.4-3.4c-0.9-1.5-1.4-3.2-1.4-5.1v-16.2h-1.6c-0.5,0-0.8-0.1-1-0.3c-0.2-0.2-0.3-0.4-0.3-0.7
			c0-0.3,0.1-0.5,0.3-0.7c0.2-0.2,0.5-0.2,1-0.2h7.1c0.5,0,0.8,0.1,1,0.3c0.2,0.2,0.3,0.4,0.3,0.7c0,0.3-0.1,0.5-0.3,0.7
			c-0.2,0.2-0.5,0.3-1,0.3h-3.6V391c0,2.1,0.7,3.9,2.2,5.4c1.5,1.5,3.2,2.2,5.2,2.2c1.3,0,2.4-0.3,3.5-0.9c1.1-0.6,2-1.5,2.8-2.7
			c0.8-1.2,1.2-2.6,1.2-4.1v-16.2h-3.6c-0.5,0-0.8-0.1-1-0.3c-0.2-0.2-0.3-0.4-0.3-0.7c0-0.3,0.1-0.5,0.3-0.7c0.2-0.2,0.5-0.3,1-0.3
			h7.1c0.5,0,0.8,0.1,1,0.3s0.3,0.4,0.3,0.7c0,0.3-0.1,0.5-0.3,0.7c-0.2,0.2-0.5,0.3-1,0.3L-499.2,374.8L-499.2,374.8z"/>
		<path class="st31" d="M-486.5,387.8v10.1h3.6c0.5,0,0.8,0.1,1,0.3c0.2,0.2,0.3,0.4,0.3,0.7c0,0.3-0.1,0.5-0.3,0.7
			c-0.2,0.2-0.5,0.3-1,0.3h-8.1c-0.5,0-0.8-0.1-1-0.3s-0.3-0.4-0.3-0.7c0-0.3,0.1-0.5,0.3-0.7c0.2-0.2,0.5-0.3,1-0.3h2.6v-23.1h-2.6
			c-0.5,0-0.8-0.1-1-0.3c-0.2-0.2-0.3-0.4-0.3-0.7c0-0.3,0.1-0.5,0.3-0.7s0.5-0.3,1-0.3h11.7c2.4,0,4.4,0.8,6.1,2.3
			c1.7,1.5,2.5,3.3,2.5,5.2c0,1.4-0.5,2.7-1.5,3.9c-1,1.2-2.7,2.2-5.1,3.1c1.4,1,2.6,2,3.5,3.2c1,1.2,2.6,3.7,4.7,7.4h1.5
			c0.5,0,0.8,0.1,1,0.3c0.2,0.2,0.3,0.4,0.3,0.7c0,0.3-0.1,0.5-0.3,0.7c-0.2,0.2-0.5,0.3-1,0.3h-2.6c-2.4-4.3-4.3-7.2-5.6-8.6
			c-1.3-1.5-2.8-2.6-4.5-3.4H-486.5z M-486.5,385.9h5.3c1.7,0,3.2-0.3,4.6-0.9c1.4-0.6,2.4-1.3,3-2.2c0.6-0.8,0.9-1.7,0.9-2.5
			c0-1.3-0.6-2.5-1.9-3.7c-1.3-1.2-2.9-1.8-4.7-1.8h-7.1L-486.5,385.9L-486.5,385.9z"/>
		<path class="st31" d="M-442.4,399.8h-2.5l-14.3-24.1v22.2h3.6c0.5,0,0.8,0.1,1,0.3c0.2,0.2,0.3,0.4,0.3,0.7c0,0.3-0.1,0.5-0.3,0.7
			c-0.2,0.2-0.5,0.3-1,0.3h-7.1c-0.5,0-0.8-0.1-1-0.3s-0.3-0.4-0.3-0.7c0-0.3,0.1-0.5,0.3-0.7c0.2-0.2,0.5-0.3,1-0.3h1.6v-23.1h-2.6
			c-0.5,0-0.8-0.1-1-0.3c-0.2-0.2-0.3-0.4-0.3-0.7c0-0.3,0.1-0.5,0.3-0.7c0.2-0.2,0.5-0.3,1-0.3h5.1l14.3,24.2v-22.2h-3.6
			c-0.5,0-0.8-0.1-1-0.3c-0.2-0.2-0.3-0.4-0.3-0.7c0-0.3,0.1-0.5,0.3-0.7c0.2-0.2,0.5-0.3,1-0.3h7.1c0.5,0,0.8,0.1,1,0.3
			c0.2,0.2,0.3,0.4,0.3,0.7c0,0.3-0.1,0.5-0.3,0.7c-0.2,0.2-0.5,0.3-1,0.3h-1.6L-442.4,399.8L-442.4,399.8z"/>
	</g>
</g>
<g id="Layer_5" class="st0">
	<path class="st32" d="M-32.5,1007.4c0,9.4-7.6,17-17,17h-447.9c-9.4,0-17-7.6-17-17V718.3c0-9.4,7.6-17,17-17h447.9
		c9.4,0,17,7.6,17,17L-32.5,1007.4L-32.5,1007.4z"/>
	<g class="st1">
		<g>
			<g>
				<defs>
					<rect id="SVGID_00000073688992051217021910000001440423082934931388_" x="8.5" y="-186.9" width="578.3" height="409.9"/>
				</defs>
				<clipPath id="SVGID_00000031891506419066038470000015346755325998325434_">
					<use xlink:href="#SVGID_00000073688992051217021910000001440423082934931388_"  style="overflow:visible;"/>
				</clipPath>
				<polygon style="clip-path:url(#SVGID_00000031891506419066038470000015346755325998325434_);fill:#FFFFFF;" points="586.8,223 
					8.5,223 8.5,-186.9 586.8,-186.9 				"/>
			</g>
		</g>
		<path class="st34" d="M68.9,177.4h457.4c8.2,0,14.9-6.7,14.9-14.9v-289c0-8.2-6.7-14.9-14.9-14.9H68.9c-8.2,0-14.9,6.7-14.9,14.9
			v289C54.1,170.8,60.7,177.4,68.9,177.4L68.9,177.4z"/>
		<path class="st15" d="M271.9-114.9v228.2l-29.8,38.1h-24.5l28.2-34.6h-17.9l-28.6,34.7H84.9l28.7-34.8V81.8H77.4
			c0,0,6.8-19.4,18.3-27.5c2.6-1.9,5.8-2.8,9-2.8h9.8v-166.3l-0.2,0H271.9L271.9-114.9z"/>
		<path class="st34" d="M223.4-47.3c9.4,0,16.9-7.6,16.9-16.9c0-9.4-7.6-16.9-16.9-16.9c-9.4,0-16.9,7.6-16.9,16.9
			C206.4-54.8,214-47.3,223.4-47.3L223.4-47.3z"/>
		<path class="st34" d="M222.4-9.7c0.5-1.1,1.4-1.2,2-1.1c0.5,0.1,0.9,0.3,1.2,0.7l17.5,17.9c1.1,1.1,2.7,1.8,4.3,1.8H273v-20.2
			h-20.1c-0.8,0-1.5-0.4-1.9-1.1c-18.2-35-41.5-33.7-41.5-33.7h-60c-1.9,0-3.6,0.9-4.7,2.4l-21.3,30.7c-3.6,6.3,3,10.7,3,10.7
			c8.5,5,13.1-1.5,13.6-2.3c0.1-0.1,0.1-0.2,0.2-0.3l14.4-20.4c0.5-0.8,1.4-1.2,2.4-1.2h19.1c0.8,0,1.4,0.9,1,1.6c0,0,0,0,0,0
			l-18.6,38.3c-3.7,7.9-3.9,38.1-3.9,38.1c-0.2,5.4-3.5,5.5-4.5,5.4c-0.3,0-0.5,0-0.8,0h-43.1c-1.2,0-2.4,0.3-3.4,0.9
			c-11.8,6.8-14.3,17.4-14.3,17.4l73-0.1c10.3,0,13.6-15.4,13.6-15.4l6-26.7c0.2-0.9,1.4-1.1,1.9-0.3l39.1,67.2l1.9,3.2
			c0,0,0.1,0.1,0.1,0.1c2.4,3.6,6.6,5.7,10.9,5.7h19.1l-4.5-9.1l-40.1-80.2c0,0-0.1-0.1-0.1-0.1c-1.6-2.9-1.5-6.5,0.3-9.3
			C213.2,5.4,221.7-8.1,222.4-9.7L222.4-9.7z"/>
		<polygon class="st15" points="286.3,-50.3 480,-50.3 480,-86.5 286.3,-86.5 		"/>
		<polygon class="st15" points="482.9,-114.8 432.9,-114.8 503.4,-43.7 528.4,-68.9 		"/>
		<polygon class="st15" points="482.9,-23.1 432.9,-23.1 503.4,-94.1 528.4,-68.9 		"/>
		<polygon class="st15" points="303.9,91.9 343.8,91.9 343.8,74.9 303.9,74.9 303.9,61.7 346.7,61.7 346.7,44.7 285.5,44.7 
			285.5,124.5 348.4,124.5 348.4,107.4 303.9,107.4 		"/>
		<polygon class="st15" points="431.9,44.7 409.2,44.7 392.8,67.7 376.4,44.7 353.6,44.7 381.8,82.6 350.9,124.5 373.6,124.5 
			392.8,97.6 411.8,124.5 434.6,124.5 403.6,82.6 		"/>
		<polygon class="st15" points="437.8,124.5 456.5,124.5 456.5,44.7 437.8,44.7 		"/>
		<polygon class="st15" points="463,44.7 463,61.7 486.8,61.7 486.8,124.5 505.3,124.5 505.3,61.7 529.3,61.7 529.3,44.7 		"/>
	</g>
	<path class="st35" d="M-844.7,217.3c-9.8-1.5-19.9,5.5-21,19.1c-1.3,16.2,14.8,29.8,17.8,29.7c2.6,0,15.9-13.2,17.6-24.3
		C-828.5,229.7-834.9,218.8-844.7,217.3z M-848.3,259.4c0,0-5.9-2.9-9.3-8c-3.7-5.5-3.7-9.9-3.7-9.9s5.4-0.3,9.8,5.4
		C-847.5,252-848.3,259.4-848.3,259.4z M-834.7,251.4c-3.4,5.1-9.3,8-9.3,8s-0.8-7.5,3.2-12.5c4.4-5.6,9.8-5.4,9.8-5.4
		S-831,246-834.7,251.4z"/>
	<path class="st36" d="M-254.3,79.5c0,3.3-2.7,6-6,6h-32c-2,0-3.9-1-5-2.7c-7.5-11.6-13.5-19.1-18-24.1l-20.7,37.6
		c-0.2,1.5-0.2,3.2-0.1,4c2.1,4.8,28.9,56.4,46.6,90.3c1.5,2.9,0.4,6.6-2.5,8.1c-0.9,0.5-1.8,0.7-2.8,0.7c-2.2,0-4.2-1.2-5.3-3.2
		c-17.3-33-46.4-88.9-47.4-92c-1.4-4.3-0.4-9.9-0.2-11c0.1-0.6,0.3-1.2,0.6-1.7l22.6-41c-0.8-0.5-1.3-0.7-1.5-0.9h-16.3
		c0,0.9-0.1,1.9-0.5,2.8l-24.5,52.4c-0.2,0.4-0.2,0.5-0.5,0.8c-0.3,0.6-2.6,5.1-3,15.4c-0.5,13.1,0,29.9,0,30.1
		c0,1.6-0.6,3.2-1.7,4.4c-1.1,1.2-2.7,1.8-4.3,1.8h-71c-3.3,0-6-2.7-6-6s2.7-6,6-6h64.9c-0.1-6.2-0.2-16.1,0.1-24.7
		c0.5-12.9,3.5-19.2,4.7-21.2l23.3-49.8h-32.6l-20.2,29.4c-1.9,2.7-5.6,3.4-8.3,1.5c-2.7-1.9-3.4-5.6-1.5-8.3l22-32
		c1.1-1.6,3-2.6,4.9-2.6h65.2c3.7,0,14.6,3.6,36.2,36h28.8C-257,73.5-254.3,76.2-254.3,79.5z"/>
	<path class="st36" d="M297.9,305.7c0,3.3-2.7,5.9-5.9,6l-35.3,0.4h-0.1c-1.7,0-3.3-0.7-4.5-2l-16.1-17.8l-2.1-2.3l-4.3,7.8
		l-13.6,24.6c-0.2,1.5-0.2,3.2-0.1,4c2.1,4.7,28.8,56,46.5,89.9c0.1,0.1,0.1,0.2,0.2,0.3c0.1,0.1,0.1,0.2,0.2,0.3
		c0,0.1,0.1,0.1,0.1,0.2c0,0.1,0.1,0.1,0.1,0.2c0,0.1,0.1,0.2,0.1,0.2c0,0.1,0.1,0.2,0.1,0.3c0.1,0.2,0.1,0.5,0.1,0.7
		c0,0.5,0,1,0,1.5c0,0.1,0,0.2-0.1,0.4c0,0.1,0,0.1,0,0.2c0,0.1,0,0.2-0.1,0.3c0,0.1-0.1,0.3-0.1,0.4c0,0.1-0.1,0.2-0.1,0.4
		c-0.1,0.2-0.1,0.3-0.2,0.4c0,0.1-0.1,0.2-0.2,0.3c0,0.1-0.1,0.1-0.1,0.2c0,0,0,0.1-0.1,0.1c-0.1,0.1-0.2,0.2-0.2,0.3
		c-0.1,0.1-0.2,0.2-0.2,0.3c-0.1,0.2-0.3,0.3-0.5,0.5c-0.1,0.1-0.3,0.2-0.5,0.4c-0.1,0.1-0.2,0.2-0.4,0.2c0,0,0,0,0,0
		c-0.1,0.1-0.2,0.1-0.3,0.2c-0.1,0.1-0.2,0.1-0.3,0.2c-0.1,0-0.1,0.1-0.2,0.1c-0.1,0-0.2,0.1-0.3,0.1c-0.1,0-0.1,0-0.2,0.1
		c-0.1,0-0.2,0.1-0.3,0.1c-0.1,0-0.1,0-0.2,0c-0.1,0-0.2,0-0.3,0.1c-0.1,0-0.3,0-0.4,0c-0.1,0-0.3,0-0.4,0c-0.2,0-0.5,0-0.8,0
		c-0.1,0-0.2,0-0.4-0.1c-0.1,0-0.2-0.1-0.4-0.1c-0.1,0-0.2-0.1-0.4-0.1s-0.2-0.1-0.4-0.1c-0.3-0.1-0.6-0.3-0.9-0.4
		c-0.1-0.1-0.2-0.1-0.3-0.2c-0.5-0.3-0.9-0.7-1.3-1.2c-0.1-0.1-0.1-0.2-0.2-0.3c-0.1-0.1-0.2-0.2-0.2-0.3c0,0,0,0,0,0L201,337.8
		l-11.6,2.4l-8,38.3c0,0.1,0,0.2-0.1,0.3c0,0,0,0.1,0,0.1c-0.1,0.4-0.2,0.8-0.4,1.2c-0.1,0.2-0.2,0.3-0.3,0.5
		c-0.4,0.6-0.9,1.2-1.5,1.6c-0.2,0.1-0.4,0.3-0.6,0.4c-0.1,0-0.2,0.1-0.3,0.2c-0.1,0.1-0.2,0.1-0.4,0.2c-0.1,0.1-0.3,0.1-0.4,0.2
		c0,0,0,0,0,0c-0.1,0-0.3,0.1-0.4,0.1c-0.3,0.1-0.6,0.2-1,0.2c-0.2,0-0.4,0-0.6,0h-71c-3.3,0-5.9-2.6-6-5.9c-0.1-3.3,2.5-6,5.8-6.1
		l65.8-2l3.4-41.5c0.1-0.7,0.2-1.4,0.5-2l22.6-48.4H165l-20.5,27.8c-1.9,2.6-5.6,3.2-8.3,1.3c-2.7-1.9-3.3-5.6-1.5-8.3l22-32
		c1.1-1.6,3-2.6,4.9-2.6h59.7c5.6,0,10.6,2.6,14,6.6l24.9,28.9l31.8,0.5C295.3,299.8,297.9,302.4,297.9,305.7z"/>
	<path class="st36" d="M228.2,535.3c0,3.3-2.7,5.9-5.9,6l-35.3,0.4h-0.1c-1.7,0-3.3-0.7-4.5-2l-16.1-17.8l-2.1-2.3l-4.3,7.8
		L146.4,552c-0.2,1.5-0.2,3.2-0.1,4c2.1,4.7,28.8,56,46.5,89.9c0.1,0.1,0.1,0.2,0.2,0.3c0.1,0.1,0.1,0.2,0.2,0.3
		c0,0.1,0.1,0.1,0.1,0.2c0,0.1,0.1,0.1,0.1,0.2c0,0.1,0.1,0.2,0.1,0.2c0,0.1,0.1,0.2,0.1,0.3c0.1,0.2,0.1,0.5,0.1,0.7
		c0.1,0.5,0.1,1,0,1.5c0,0.1,0,0.2-0.1,0.4c0,0.1,0,0.1,0,0.2c0,0.1,0,0.2-0.1,0.3c0,0.1-0.1,0.3-0.1,0.4c0,0.1-0.1,0.2-0.1,0.4
		c-0.1,0.2-0.1,0.3-0.2,0.4c-0.1,0.1-0.1,0.2-0.2,0.3c0,0.1-0.1,0.1-0.1,0.2c0,0-0.1,0.1-0.1,0.1c-0.1,0.1-0.2,0.2-0.2,0.3
		c-0.1,0.1-0.2,0.2-0.2,0.3c-0.1,0.2-0.3,0.3-0.5,0.5c-0.1,0.1-0.3,0.2-0.5,0.4c-0.1,0.1-0.2,0.2-0.4,0.2c0,0,0,0,0,0
		c-0.1,0.1-0.2,0.1-0.3,0.2c-0.1,0.1-0.2,0.1-0.3,0.2c-0.1,0-0.1,0.1-0.2,0.1c-0.1,0-0.2,0.1-0.3,0.1c-0.1,0-0.1,0-0.2,0.1
		c-0.1,0-0.2,0.1-0.3,0.1c-0.1,0-0.1,0-0.2,0c-0.1,0-0.2,0-0.3,0.1c-0.1,0-0.3,0-0.4,0c-0.1,0-0.3,0-0.4,0c-0.2,0-0.5,0-0.8,0
		c-0.1,0-0.2,0-0.4-0.1c-0.1,0-0.2-0.1-0.4-0.1c-0.1,0-0.2-0.1-0.4-0.1s-0.2-0.1-0.4-0.1c-0.3-0.1-0.6-0.3-0.9-0.4
		c-0.1-0.1-0.2-0.1-0.3-0.2c-0.5-0.3-0.9-0.7-1.3-1.2c-0.1-0.1-0.1-0.2-0.2-0.3c-0.1-0.1-0.2-0.2-0.2-0.3c0,0,0,0,0,0l-51.3-84.7
		l-11.6,2.4l-8,38.3c0,0.1,0,0.2-0.1,0.3c0,0,0,0.1,0,0.1c-0.1,0.4-0.2,0.8-0.4,1.2c-0.1,0.2-0.2,0.3-0.3,0.5
		c-0.4,0.6-0.9,1.2-1.5,1.6c-0.2,0.1-0.4,0.3-0.6,0.4c-0.1,0-0.2,0.1-0.3,0.2c-0.1,0.1-0.2,0.1-0.4,0.2c-0.1,0.1-0.3,0.1-0.4,0.2
		c0,0,0,0,0,0c-0.1,0-0.3,0.1-0.4,0.1c-0.3,0.1-0.7,0.2-1,0.2c-0.2,0-0.4,0-0.6,0h-71c-3.3,0-6-2.6-6-5.9c0-3.3,2.5-6,5.8-6.1
		l65.8-2l3.4-41.5c0.1-0.7,0.2-1.4,0.5-2l22.6-48.4H95.2l-20.5,27.8c-1.9,2.6-5.6,3.2-8.3,1.3c-2.7-1.9-3.3-5.6-1.5-8.3l22-32
		c1.1-1.6,3-2.6,4.9-2.6h59.7c5.6,0,10.6,2.6,14,6.6l24.9,28.9l31.8,0.5C225.6,529.3,228.2,532,228.2,535.3z"/>
	<path class="st36" d="M456.3,535.3c0,3.3-2.7,5.9-5.9,6l-35.3,0.4H415c-1.7,0-3.3-0.7-4.5-2l-18.1-20.1L374.5,552
		c-0.2,1.5-0.2,3.2-0.1,4c2.1,4.7,28.8,56,46.5,89.9c0.1,0.1,0.1,0.2,0.2,0.3c0.1,0.1,0.1,0.2,0.2,0.3c0,0.1,0.1,0.1,0.1,0.2
		c0,0.1,0.1,0.1,0.1,0.2c0,0.1,0.1,0.2,0.1,0.2c0,0.1,0.1,0.2,0.1,0.3c0.1,0.2,0.1,0.5,0.1,0.7c0,0.5,0,1,0,1.5c0,0.1,0,0.2-0.1,0.4
		c0,0.1,0,0.1,0,0.2c0,0.1,0,0.2-0.1,0.3c0,0.1-0.1,0.3-0.1,0.4c0,0.1-0.1,0.2-0.1,0.4c-0.1,0.2-0.1,0.3-0.2,0.4
		c-0.1,0.1-0.1,0.2-0.2,0.3c0,0.1-0.1,0.1-0.1,0.2c0,0,0,0.1-0.1,0.1c-0.1,0.1-0.2,0.2-0.2,0.3c-0.1,0.1-0.2,0.2-0.2,0.3
		c-0.1,0.2-0.3,0.3-0.5,0.5c-0.1,0.1-0.3,0.2-0.5,0.4c-0.1,0.1-0.2,0.2-0.4,0.2c0,0,0,0,0,0c-0.1,0.1-0.2,0.1-0.3,0.2
		c-0.1,0.1-0.2,0.1-0.3,0.2c-0.1,0-0.1,0.1-0.2,0.1c-0.1,0-0.2,0.1-0.3,0.1c-0.1,0-0.1,0-0.2,0.1c-0.1,0-0.2,0.1-0.3,0.1
		c-0.1,0-0.1,0-0.2,0c-0.1,0-0.2,0-0.3,0.1c-0.1,0-0.3,0-0.4,0c-0.1,0-0.3,0-0.4,0c-0.2,0-0.5,0-0.8,0c-0.1,0-0.2,0-0.4-0.1
		c-0.1,0-0.2-0.1-0.4-0.1c-0.1,0-0.2-0.1-0.4-0.1c-0.1,0-0.2-0.1-0.4-0.1c-0.3-0.1-0.6-0.3-0.9-0.4c-0.1-0.1-0.2-0.1-0.3-0.2
		c-0.5-0.3-0.9-0.7-1.3-1.2c-0.1-0.1-0.1-0.2-0.2-0.3c-0.1-0.1-0.2-0.2-0.2-0.3c0,0,0,0,0,0l-51.3-84.7l-11.6,2.4l-8,38.3
		c0,0.1,0,0.2-0.1,0.3c0,0,0,0.1,0,0.1c-0.1,0.4-0.2,0.8-0.4,1.2c-0.1,0.2-0.2,0.3-0.3,0.5c-0.4,0.6-0.9,1.2-1.5,1.6
		c-0.2,0.1-0.4,0.3-0.6,0.4c-0.1,0-0.2,0.1-0.3,0.2c-0.1,0.1-0.2,0.1-0.4,0.2c-0.1,0.1-0.3,0.1-0.4,0.2c0,0,0,0,0,0
		c-0.1,0-0.3,0.1-0.4,0.1c-0.3,0.1-0.6,0.2-1,0.2c-0.2,0-0.4,0-0.6,0h-71c-3.3,0-6-2.6-6-5.9c0-3.3,2.5-6,5.8-6.1l65.8-2l3.4-41.5
		c0.1-0.7,0.2-1.4,0.5-2L355,507h-31.6l-20.5,27.8c-1.9,2.6-5.6,3.2-8.3,1.3c-2.7-1.9-3.3-5.6-1.5-8.3l22-32c1.1-1.6,3-2.6,5-2.6
		h65.2c1.7,0,3.4,0.8,4.5,2.1l28.8,33.4l31.8,0.5C453.7,529.3,456.3,532,456.3,535.3z"/>
	<path class="st37" d="M-263.3-107.7l22-32h65.2c0,0,9.5,0,33,36h32"/>
	<path class="st37" d="M-199-133.5L-223.5-81c0,0-3.5,5.1-4,18.6s0,30.5,0,30.5h-71"/>
	<path class="st37" d="M-169.3-131.2L-192.5-89c0,0-1,4.9,0,7.9s47,91.1,47,91.1"/>
	<path class="st36" d="M180.7,378.5l0,0.2c0,0,0,0.1,0,0.1C180.7,378.7,180.7,378.6,180.7,378.5z"/>
	<polygon class="st37" points="566.7,331.4 532.2,330.8 501.7,295.4 436.5,295.4 414.5,327.4 436.8,297.1 500.3,297.1 531.4,331.8 	
		"/>
	<polyline class="st37" points="478.7,301.6 454.2,354.1 450.2,403.1 379.2,403.1 450.2,401 	"/>
	<path class="st37" d="M508.5,303.9l-23.3,42.2c0,0-1,4.9,0,7.9s47,91.1,47,91.1"/>
	<polyline class="st37" points="450.2,403.1 459.1,360.8 478.7,356.8 532.2,445.1 	"/>
	<g class="st1">
		<path class="st38" d="M245.5,233.7c-1.7,11.1-15,24.3-17.6,24.3c-3,0-19.1-13.5-17.8-29.7c1.1-13.6,11.3-20.6,21-19.1
			C240.9,210.6,247.4,221.6,245.5,233.7z"/>
		<path class="st15" d="M229.2,245.4c0,0,1.2-8.6-4.6-11.9c-3.2-1.8-8,0-8,0s-0.3,4.6,3.3,8.4C223.7,245.7,229.2,245.4,229.2,245.4z
			"/>
		<path class="st15" d="M233.3,245.4c0,0-0.6-8.3,4-11.6c2.6-1.8,5.9-0.3,5.9-0.3s0.2,4.6-2.6,8.4
			C237.7,245.7,233.3,245.4,233.3,245.4z"/>
	</g>
	<path class="st36" d="M51.2,381.6c-2.3,15.9-12.4,24.3-15,24.3c-4.2,0-23.8-13.5-21.2-33c1.9-13.6,12-17.3,21.8-15.8
		C46.6,358.6,53.3,366.9,51.2,381.6z"/>
	<path class="st32" d="M-82.6,356.1c0,0,1.2-13.4-4.6-16.7c-3.2-1.8-8,0-8,0s-0.3,9.4,3.3,13.2C-88.2,356.5-82.6,356.1-82.6,356.1z"
		/>
	<path class="st32" d="M-78.6,356.1c0,0-0.6-13.1,4-16.3c2.6-1.8,5.9-0.3,5.9-0.3s0.2,9.4-2.6,13.2
		C-74.2,356.5-78.6,356.1-78.6,356.1z"/>
	<path class="st39" d="M106.9,280.2c0,3.9-1.2,7.5-3.3,10.5c-1.6,2.3-3.8,4.2-6.4,5.6c-2.5,1.3-5.3,2-8.4,2
		c-10,0-18.1-8.1-18.1-18.1c0-10,8.1-18.1,18.1-18.1c5.6,0,10.6,2.6,14,6.6C105.3,271.8,106.9,275.8,106.9,280.2z"/>
	<g class="st1">
		<path class="st38" d="M56.7,320.1c-1.7,11.1-15,24.3-17.6,24.3c-3,0-19.1-13.5-17.8-29.7c1.1-13.6,11.3-20.6,21-19.1
			C52.1,297.1,58.5,308.1,56.7,320.1z"/>
		<ellipse transform="matrix(0.832 -0.5548 0.5548 0.832 -177.5191 73.8276)" class="st40" cx="33.1" cy="330" rx="3.4" ry="8.2"/>
		<ellipse transform="matrix(0.5548 -0.832 0.832 0.5548 -253.2146 186.7416)" class="st40" cx="47.9" cy="330" rx="8.2" ry="3.4"/>
	</g>
	<path class="st32" d="M37.4,399.3c0,0-0.8-7.5,3.2-12.5c4.4-5.6,9.8-5.4,9.8-5.4s0,4.4-3.7,9.9C43.3,396.3,37.4,399.3,37.4,399.3z"
		/>
	<path class="st32" d="M35.1,399.3c0,0,0.8-7.5-3.2-12.5c-4.4-5.6-9.8-5.4-9.8-5.4s0,4.4,3.7,9.9C29.2,396.3,35.1,399.3,35.1,399.3z
		"/>
	<path class="st3" d="M-844.7,217.3c-9.8-1.5-19.9,5.5-21,19.1c-1.3,16.2,14.8,29.8,17.8,29.7c2.6,0,15.9-13.2,17.6-24.3
		C-828.5,229.7-834.9,218.8-844.7,217.3z M-848.3,259.4c0,0-5.9-2.9-9.3-8c-3.7-5.5-3.7-9.9-3.7-9.9s5.4-0.3,9.8,5.4
		C-847.5,252-848.3,259.4-848.3,259.4z M-834.7,251.4c-3.4,5.1-9.3,8-9.3,8s-0.8-7.5,3.2-12.5c4.4-5.6,9.8-5.4,9.8-5.4
		S-831,246-834.7,251.4z"/>
	<g class="st1">
		<path class="st41" d="M-539.9,177.3h-464.9c-9.4,0-17,7.6-17,17v289.1c0,9.4,7.6,17,17,17h464.9c9.4,0,17-7.6,17-17V194.3
			C-522.9,184.9-530.5,177.3-539.9,177.3z M-793.6,320.8l-4.4,0V435l-29.6,37.5h-21.1l19-23.6c2.1-2.6,1.7-6.4-0.9-8.4
			s-6.4-1.7-8.4,0.9l-25.1,31.1h-121.5l29.6-37.5v-42.4h-25.2c-5.1,0-9.3-4.2-9.4-9.3c-0.1-5.1,4-9.4,9.1-9.5l25.5-0.8V206.6h158
			V302l4.4,0.1c5.1,0.1,9.3,4.3,9.2,9.4C-784.3,316.6-788.5,320.8-793.6,320.8z M-566.3,277.8l-21.3,21.3h-50.2l28.7-28.6h-174.9
			v-35.5h174.9l-28.6-28.6h50.2l21.3,21.3l25.1,25.1L-566.3,277.8z"/>
		<path class="st38" d="M-844.7,217.3c-9.8-1.5-19.9,5.5-21,19.1c-1.3,16.2,14.8,29.8,17.8,29.7c2.6,0,15.9-13.2,17.6-24.3
			C-828.5,229.7-834.9,218.8-844.7,217.3z M-848.3,259.4c0,0-5.9-2.9-9.3-8c-3.7-5.5-3.7-9.9-3.7-9.9s5.4-0.3,9.8,5.4
			C-847.5,252-848.3,259.4-848.3,259.4z M-834.7,251.4c-3.4,5.1-9.3,8-9.3,8s-0.8-7.5,3.2-12.5c4.4-5.6,9.8-5.4,9.8-5.4
			S-831,246-834.7,251.4z"/>
		<path class="st42" d="M-787.7,311.5c0,3.3-2.7,5.9-5.9,6l-4.3,0l-31,0.3h-0.1c-1.7,0-3.3-0.7-4.5-2l-16-17.8l-2-2.3l-4.3,7.8
			l-13.6,24.6c-0.2,1.5-0.2,3.2-0.1,4c2.1,4.7,28.8,56,46.5,89.9c0.1,0.1,0.1,0.2,0.2,0.3c0.1,0.1,0.1,0.2,0.2,0.3
			c0,0.1,0.1,0.1,0.1,0.2c0,0.1,0.1,0.1,0.1,0.2c0,0.1,0.1,0.2,0.1,0.2c0,0.1,0.1,0.2,0.1,0.3c0.1,0.2,0.1,0.5,0.1,0.7
			c0,0.5,0,1,0,1.5c0,0.1,0,0.2-0.1,0.4c0,0.1,0,0.1,0,0.2c0,0.1,0,0.2-0.1,0.3c0,0.1-0.1,0.3-0.1,0.4c0,0.1-0.1,0.2-0.1,0.4
			c-0.1,0.2-0.1,0.3-0.2,0.4c0,0.1-0.1,0.2-0.2,0.3c0,0.1-0.1,0.1-0.1,0.2c0,0,0,0.1-0.1,0.1c-0.1,0.1-0.2,0.2-0.2,0.3
			c-0.1,0.1-0.2,0.2-0.2,0.3c-0.2,0.2-0.3,0.3-0.5,0.5c-0.2,0.1-0.3,0.2-0.5,0.4c-0.1,0.1-0.2,0.2-0.4,0.2c0,0,0,0,0,0
			c-0.1,0.1-0.2,0.1-0.3,0.2c-0.1,0.1-0.2,0.1-0.3,0.2c-0.1,0-0.1,0.1-0.2,0.1c-0.1,0-0.2,0.1-0.3,0.1c-0.1,0-0.1,0-0.2,0.1
			c-0.1,0-0.2,0.1-0.3,0.1c-0.1,0-0.2,0-0.2,0c-0.1,0-0.2,0-0.3,0.1c-0.2,0-0.3,0-0.4,0c-0.2,0-0.3,0-0.4,0c-0.2,0-0.5,0-0.8,0
			c-0.1,0-0.2,0-0.4-0.1c-0.1,0-0.2-0.1-0.4-0.1c-0.1,0-0.2-0.1-0.4-0.1s-0.2-0.1-0.4-0.1c-0.3-0.1-0.6-0.3-0.9-0.4
			c-0.1-0.1-0.2-0.1-0.3-0.2c-0.5-0.3-0.9-0.7-1.3-1.2c-0.1-0.1-0.1-0.2-0.2-0.3c-0.1-0.1-0.2-0.2-0.2-0.3c0,0,0,0,0,0l-51.3-84.7
			l-11.6,2.4l-8,38.3c0,0.1,0,0.2-0.1,0.3c0,0,0,0.1,0,0.1c-0.1,0.4-0.2,0.8-0.4,1.2c-0.1,0.2-0.2,0.3-0.3,0.5
			c-0.4,0.6-0.9,1.2-1.5,1.6c-0.2,0.1-0.4,0.3-0.5,0.4c-0.1,0-0.2,0.1-0.3,0.2c-0.1,0.1-0.2,0.1-0.4,0.2c-0.1,0.1-0.3,0.1-0.4,0.2
			c0,0,0,0,0,0c-0.1,0-0.3,0.1-0.4,0.1c-0.3,0.1-0.7,0.1-1,0.2c-0.2,0-0.4,0-0.6,0h-71c-3.3,0-6-2.6-6-5.9c0-3.3,2.5-6,5.8-6.1
			l25.4-0.8l40.4-1.2l3.4-41.5c0-0.7,0.2-1.4,0.5-2l22.6-48.4h-31.6l-20.5,27.8c-1.9,2.6-5.6,3.2-8.3,1.3c-2.7-1.9-3.3-5.6-1.5-8.3
			l22-32c1.1-1.6,3-2.6,5-2.6h59.7c5.6,0,10.6,2.6,14,6.6l24.9,28.9l27.5,0.5l4.4,0.1C-790.3,305.5-787.7,308.2-787.7,311.5z"/>
	</g>
	<g class="st1">
		<path class="st38" d="M-41,701.3h-464.9c-9.4,0-17,7.6-17,17v289.1c0,9.4,7.6,17,17,17H-41c9.4,0,17-7.6,17-17V718.3
			C-24,708.9-31.6,701.3-41,701.3z M-299,829.4l-27.5-0.5l-24.9-28.9c-3.3-4-8.3-6.6-14-6.6H-425c-2,0-3.8,1-5,2.6l-22,32
			c-1.9,2.7-1.2,6.4,1.5,8.3c2.7,1.9,6.4,1.3,8.3-1.3l20.5-27.8h31.6l-22.6,48.4c-0.3,0.6-0.5,1.3-0.5,2.1l-3.4,41.5l-40.4,1.2
			l-25.4,0.8c-3.3,0.1-5.9,2.8-5.8,6.1c0,3.3,2.7,5.9,6,5.9h71c0.2,0,0.4,0,0.6,0c0.3,0,0.7-0.1,1-0.2c0.1,0,0.3-0.1,0.4-0.1
			c0,0,0,0,0,0c0.1,0,0.3-0.1,0.4-0.2c0.1-0.1,0.2-0.1,0.4-0.2c0.1-0.1,0.2-0.1,0.3-0.2c0.2-0.1,0.4-0.2,0.5-0.4
			c0.6-0.4,1.1-1,1.5-1.6c0.1-0.2,0.2-0.3,0.3-0.5c0.2-0.4,0.3-0.8,0.4-1.2c0,0,0-0.1,0-0.1c0-0.1,0-0.2,0.1-0.3l8-38.3l11.6-2.4
			l51.3,84.7c0,0,0,0,0,0c0.1,0.1,0.1,0.2,0.2,0.3c0.1,0.1,0.1,0.2,0.2,0.3c0.4,0.5,0.8,0.9,1.3,1.2c0.1,0.1,0.2,0.1,0.3,0.2
			c0.3,0.2,0.6,0.3,0.9,0.4c0.1,0.1,0.2,0.1,0.4,0.1s0.2,0.1,0.4,0.1c0.1,0,0.2,0.1,0.4,0.1c0.1,0,0.2,0.1,0.4,0.1
			c0.2,0,0.5,0.1,0.8,0.1c0.1,0,0.3,0,0.4,0c0.1,0,0.3,0,0.4,0c0.1,0,0.2,0,0.3-0.1c0.1,0,0.2,0,0.2-0.1c0.1,0,0.2-0.1,0.3-0.1
			c0.1,0,0.1,0,0.2-0.1c0.1,0,0.2-0.1,0.3-0.1c0,0,0.1,0,0.2-0.1c0.1-0.1,0.2-0.1,0.3-0.2c0.1-0.1,0.2-0.1,0.3-0.2c0,0,0,0,0,0
			c0.1-0.1,0.2-0.2,0.4-0.2c0.2-0.1,0.3-0.2,0.5-0.4c0.2-0.2,0.3-0.3,0.5-0.5c0.1-0.1,0.2-0.2,0.2-0.3c0.1-0.1,0.2-0.2,0.2-0.3
			c0,0,0.1-0.1,0.1-0.1c0-0.1,0.1-0.1,0.1-0.2c0.1-0.1,0.1-0.2,0.2-0.3c0.1-0.2,0.1-0.3,0.2-0.4c0-0.1,0.1-0.2,0.1-0.4
			c0-0.1,0.1-0.3,0.1-0.4c0-0.1,0-0.2,0.1-0.3c0-0.1,0-0.1,0-0.2c0-0.1,0-0.2,0.1-0.4c0.1-0.5,0.1-1,0-1.5c0-0.2-0.1-0.5-0.1-0.7
			c0-0.1-0.1-0.2-0.1-0.3c0-0.1,0-0.2-0.1-0.2c0-0.1,0-0.1-0.1-0.2c0-0.1-0.1-0.1-0.1-0.2c0-0.1-0.1-0.2-0.2-0.3
			c0-0.1-0.1-0.2-0.2-0.3c-17.7-33.9-44.4-85.2-46.5-89.9c-0.2-0.7-0.1-2.4,0.1-3.9l13.6-24.6l4.3-7.8l2,2.3l16,17.8
			c1.1,1.3,2.8,2,4.5,2h0.1l31-0.3V959l-29.6,37.6h-21.1l19-23.6c2.1-2.6,1.7-6.4-0.9-8.4s-6.4-1.7-8.4,0.9l-25.1,31.1h-121.4
			L-457,959v-42.4h-25.2c-5.1,0-9.3-4.2-9.4-9.3c-0.1-5.1,4-9.4,9.1-9.5l25.5-0.8V730.6h158L-299,829.4L-299,829.4z M-67.5,801.8
			l-21.3,21.3H-139l28.7-28.7h-174.9v-35.5h174.9l-28.6-28.6h50.2l46.4,46.4L-67.5,801.8z"/>
		<path class="st38" d="M-345.8,741.3c-9.8-1.5-19.9,5.5-21,19.1c-1.4,16.2,14.8,29.8,17.8,29.7c2.6,0,15.9-13.2,17.6-24.3
			C-329.6,753.7-336,742.8-345.8,741.3z M-349.4,783.4c0,0-5.9-2.9-9.3-8c-3.7-5.5-3.7-9.9-3.7-9.9s5.4-0.3,9.8,5.4
			C-348.6,776-349.4,783.4-349.4,783.4z M-335.8,775.4c-3.4,5.1-9.3,8-9.3,8s-0.8-7.5,3.2-12.5c4.4-5.7,9.8-5.4,9.8-5.4
			S-332.1,770-335.8,775.4z"/>
	</g>
	<path class="st35" d="M387.9-254.4c0,9.4-7.6,17-17,17H-94c-9.4,0-17-7.6-17-17v-289.1c0-9.4,7.6-17,17-17h464.9
		c9.4,0,17,7.6,17,17L387.9-254.4L387.9-254.4z"/>
	<circle class="st3" cx="23.3" cy="-315.8" r="13.1"/>
	<path class="st39" d="M82.6-303.2c-0.4,0-0.7,0-1.1-0.1c-0.2,0-0.5-0.1-0.7-0.1c-0.2,0-0.3-0.1-0.5-0.1c-0.3-0.1-0.5-0.1-0.7-0.2
		c-0.2-0.1-0.3-0.1-0.5-0.2c-0.5-0.2-0.9-0.4-1.4-0.7c-0.2-0.1-0.3-0.2-0.5-0.3c-0.7-0.5-1.4-1.1-2-1.8c-0.1-0.2-0.2-0.3-0.3-0.4
		c0,0-0.1-0.2-0.1-0.2l-0.1-0.1l-50.3-83.1l-7.1,1.4l-7.5,36c0,0.2-0.1,0.4-0.1,0.5c0,0.1,0,0.2-0.1,0.2c-0.2,0.6-0.4,1.2-0.7,1.8
		c-0.1,0.3-0.3,0.5-0.4,0.8c-0.6,1-1.4,1.8-2.3,2.5c-0.2,0.2-0.5,0.4-0.8,0.5l-0.2,0.1c-0.1,0.1-0.3,0.2-0.4,0.2L4.4-346L4.4-346
		l-0.7,0.2c-0.2,0.1-0.5,0.1-0.7,0.2c-0.5,0.1-1,0.2-1.6,0.3c-0.2,0-0.6,0-0.9,0h-71c-5.1,0-9.3-4.2-9.4-9.3c-0.1-5.1,4-9.4,9.1-9.5
		l62.8-1.9l3.1-38.5c0.1-1.1,0.4-2.2,0.8-3.2l20.4-43.6H-8.1l-19.5,26.4c-1.8,2.4-4.6,3.8-7.6,3.8c-2,0-3.8-0.6-5.4-1.7
		c-4.2-3-5.2-8.8-2.3-13l22-32c1.8-2.6,4.7-4.1,7.8-4.1h59.7c6.4,0,12.5,2.8,16.6,7.8l23.8,27.7l30.3,0.5c5.1,0.1,9.3,4.3,9.2,9.4
		c0,5.1-4.2,9.3-9.3,9.4l-35.3,0.4c-2.8,0-5.3-1.1-7.1-3.1l-14.9-16.5l-15.3,27.7c-0.1,0.8-0.1,1.5-0.1,1.9
		c2.8,6,24.9,48.7,46.1,89.2c0.1,0.2,0.2,0.3,0.3,0.5c0.1,0.2,0.1,0.3,0.2,0.5c0.1,0.1,0.1,0.2,0.2,0.4c0.1,0.1,0.1,0.2,0.1,0.4
		c0,0.1,0.1,0.2,0.1,0.4c0.1,0.2,0.1,0.3,0.1,0.5c0.1,0.3,0.2,0.7,0.2,1.1c0.1,0.8,0.1,1.6,0,2.3c0,0.2-0.1,0.5-0.1,0.7
		c0,0-0.1,0.2-0.1,0.2c0,0.2-0.1,0.3-0.1,0.5c0,0.1-0.1,0.3-0.1,0.4l0,0.1c-0.1,0.2-0.1,0.4-0.2,0.6c-0.1,0.2-0.2,0.5-0.3,0.7
		l-0.1,0.1c-0.1,0.1-0.1,0.2-0.2,0.4c-0.1,0.1-0.3,0.4-0.3,0.5c-0.1,0.2-0.3,0.4-0.4,0.6c-0.1,0.1-0.2,0.3-0.4,0.4
		c-0.2,0.3-0.5,0.5-0.7,0.7l-0.1,0.1c-0.2,0.2-0.4,0.4-0.7,0.5c0,0-0.2,0.2-0.3,0.2l0,0l-0.3,0.2c-0.2,0.1-0.4,0.3-0.6,0.4
		c-0.1,0.1-0.2,0.1-0.4,0.2c-0.1,0-0.2,0.1-0.4,0.2c-0.1,0.1-0.3,0.1-0.4,0.2c-0.1,0-0.2,0.1-0.4,0.1c-0.1,0-0.3,0.1-0.4,0.1
		c-0.1,0-0.3,0.1-0.4,0.1l-0.5,0.1l-0.1,0c-0.2,0-0.4,0.1-0.7,0.1C83-303.2,82.8-303.2,82.6-303.2z"/>
	<path class="st36" d="M123.1-426.3c0,3.3-2.7,5.9-5.9,6L81.8-420h-0.1c-1.7,0-3.3-0.7-4.5-2l-16-17.8l-2-2.3l-4.3,7.8l-13.6,24.6
		c-0.2,1.5-0.2,3.2-0.1,3.9c2.1,4.7,28.8,56,46.5,89.9c0.1,0.1,0.1,0.2,0.2,0.3c0.1,0.1,0.1,0.2,0.2,0.3c0,0.1,0.1,0.1,0.1,0.2
		c0,0.1,0.1,0.1,0.1,0.2c0,0.1,0.1,0.2,0.1,0.2c0,0.1,0.1,0.2,0.1,0.4c0.1,0.2,0.1,0.5,0.1,0.7c0.1,0.5,0.1,1,0,1.5
		c0,0.1,0,0.2-0.1,0.4c0,0.1,0,0.1,0,0.2c0,0.1,0,0.2-0.1,0.3c0,0.1-0.1,0.3-0.1,0.4c0,0.1-0.1,0.2-0.1,0.4
		c-0.1,0.1-0.1,0.3-0.2,0.4c-0.1,0.1-0.1,0.2-0.2,0.3c0,0.1-0.1,0.1-0.1,0.2c0,0-0.1,0.1-0.1,0.1c-0.1,0.1-0.2,0.2-0.2,0.3
		c-0.1,0.1-0.2,0.2-0.2,0.3c-0.2,0.2-0.3,0.3-0.5,0.5c-0.2,0.1-0.3,0.2-0.5,0.4c-0.1,0.1-0.2,0.2-0.4,0.2c0,0,0,0,0,0
		c-0.1,0.1-0.2,0.1-0.3,0.2c-0.1,0.1-0.2,0.1-0.3,0.2c-0.1,0-0.1,0.1-0.2,0.1c-0.1,0.1-0.2,0.1-0.3,0.1c-0.1,0-0.1,0-0.2,0.1
		c-0.1,0-0.2,0.1-0.3,0.1c-0.1,0-0.2,0-0.2,0.1c-0.1,0-0.2,0-0.3,0.1c-0.2,0-0.3,0-0.4,0c-0.2,0-0.3,0-0.4,0c-0.2,0-0.5,0-0.8,0
		c-0.1,0-0.2,0-0.4-0.1c-0.1,0-0.2-0.1-0.4-0.1c-0.1,0-0.2-0.1-0.4-0.1s-0.2-0.1-0.4-0.1c-0.3-0.1-0.6-0.3-0.9-0.4
		c-0.1-0.1-0.2-0.1-0.3-0.2c-0.5-0.3-0.9-0.7-1.3-1.2c-0.1-0.1-0.1-0.2-0.2-0.3c-0.1-0.1-0.2-0.2-0.2-0.4c0,0,0,0,0,0l-51.3-84.7
		l-11.6,2.4l-8,38.3c0,0.1,0,0.2-0.1,0.3c0,0,0,0.1,0,0.1c-0.1,0.4-0.2,0.8-0.4,1.2c-0.1,0.2-0.2,0.3-0.3,0.5
		c-0.4,0.6-0.9,1.2-1.5,1.6c-0.2,0.1-0.4,0.3-0.5,0.4c-0.1,0.1-0.2,0.1-0.3,0.2c-0.1,0.1-0.2,0.1-0.4,0.2c-0.1,0.1-0.3,0.1-0.4,0.2
		c0,0,0,0,0,0c-0.1,0.1-0.3,0.1-0.4,0.1c-0.3,0.1-0.6,0.2-1,0.2c-0.2,0-0.4,0-0.6,0h-71c-3.3,0-5.9-2.6-6-5.9
		c-0.1-3.3,2.5-6,5.8-6.1l65.8-2l3.4-41.5c0-0.7,0.2-1.4,0.5-2.1l22.6-48.4H-9.9l-20.5,27.8c-1.9,2.6-5.6,3.2-8.3,1.3
		c-2.7-1.9-3.3-5.6-1.5-8.3l22-32c1.1-1.6,3-2.6,4.9-2.6h59.7c5.6,0,10.6,2.6,14,6.6l24.9,28.9l31.8,0.5
		C120.5-432.3,123.1-429.6,123.1-426.3z"/>
	<path class="st36" d="M80.4-496c-1.7,11.1-15,24.3-17.6,24.3c-3,0-19.1-13.5-17.8-29.7c1.1-13.6,11.3-20.6,21-19.1
		S82.3-508.1,80.4-496z"/>
	<path class="st32" d="M66.7-478.4c0,0-0.8-7.5,3.2-12.5c4.4-5.6,9.8-5.4,9.8-5.4s0,4.4-3.7,9.9C72.6-481.3,66.7-478.4,66.7-478.4z"
		/>
	<path class="st32" d="M62.5-478.4c0,0,0.8-7.5-3.2-12.5c-4.4-5.6-9.8-5.4-9.8-5.4s0,4.4,3.7,9.9C56.5-481.3,62.5-478.4,62.5-478.4z
		"/>
	<rect x="-45.2" y="-531.2" class="st3" width="158" height="228.5"/>
	<polygon class="st3" points="83.2,-265.2 -74.8,-265.2 -45.2,-302.8 112.8,-302.8 	"/>
	<path class="st1" d="M48.6-252.1c-1.3,0-2.7-0.4-3.8-1.3c-2.6-2.1-3-5.9-0.9-8.4l27.8-34.5c2.1-2.6,5.9-3,8.4-0.9
		c2.6,2.1,3,5.9,0.9,8.4l-27.8,34.5C52.1-252.9,50.4-252.1,48.6-252.1z"/>
	<g class="st1">
		<polygon class="st43" points="369.5,-485.1 344.4,-460 323.1,-438.7 272.8,-438.7 301.5,-467.3 126.6,-467.3 126.6,-502.9 
			301.5,-502.9 272.8,-531.5 323.1,-531.5 344.4,-510.2 		"/>
	</g>
	<g class="st1">
		<path class="st15" d="M923.7,1004.9c0,9.2-9.9,16.7-22,16.7H322.1c-12.2,0-22-7.5-22-16.7V720.8c0-9.2,9.9-16.7,22-16.7h579.6
			c12.2,0,22,7.5,22,16.7L923.7,1004.9L923.7,1004.9z"/>
		<g>
			<path class="st38" d="M295.4,718.3v289.1c0,9.4,7.6,17,17,17h598.9c9.4,0,17-7.6,17-17V718.3c0-9.4-7.6-17-17-17H312.4
				C303,701.3,295.4,708.9,295.4,718.3z M704.5,730.6h158V897l25.5,0.8c5.1,0.1,9.2,4.4,9.1,9.5c-0.1,5.1-4.3,9.3-9.4,9.3h-25.2V959
				l29.6,37.6H770.7l-25.1-31.1c-2.1-2.6-5.9-3-8.4-0.9s-3,5.9-0.9,8.4l19,23.6h-21.1L704.5,959V841.5l31,0.3h0.1
				c1.7,0,3.3-0.7,4.5-2l16-17.8l2.1-2.3l4.3,7.8l13.6,24.6c0.2,1.5,0.2,3.2,0.1,3.9c-2.1,4.7-28.8,56-46.5,89.9
				c-0.1,0.1-0.1,0.2-0.2,0.3c-0.1,0.1-0.1,0.2-0.2,0.3c0,0.1-0.1,0.1-0.1,0.2c0,0.1-0.1,0.1-0.1,0.2c0,0.1-0.1,0.2-0.1,0.2
				c0,0.1-0.1,0.2-0.1,0.3c-0.1,0.2-0.1,0.5-0.1,0.7c-0.1,0.5-0.1,1,0,1.5c0,0.1,0,0.2,0.1,0.4c0,0.1,0,0.1,0,0.2
				c0,0.1,0,0.2,0.1,0.3c0,0.1,0.1,0.3,0.1,0.4c0,0.1,0.1,0.2,0.1,0.4c0.1,0.2,0.1,0.3,0.2,0.4c0,0.1,0.1,0.2,0.2,0.3
				c0,0.1,0.1,0.1,0.1,0.2c0,0,0.1,0.1,0.1,0.1c0.1,0.1,0.2,0.2,0.2,0.3c0.1,0.1,0.2,0.2,0.2,0.3c0.2,0.2,0.3,0.3,0.5,0.5
				c0.2,0.1,0.3,0.2,0.5,0.4c0.1,0.1,0.2,0.2,0.4,0.2c0,0,0,0,0,0c0.1,0.1,0.2,0.1,0.3,0.2c0.1,0.1,0.2,0.1,0.3,0.2
				c0.1,0,0.1,0.1,0.2,0.1c0.1,0.1,0.2,0.1,0.3,0.1c0.1,0,0.1,0.1,0.2,0.1c0.1,0,0.2,0.1,0.3,0.1c0.1,0,0.1,0,0.2,0.1
				c0.1,0,0.2,0,0.3,0.1c0.2,0,0.3,0,0.4,0c0.2,0,0.3,0,0.4,0c0.2,0,0.5,0,0.8-0.1c0.1,0,0.2,0,0.4-0.1c0.1,0,0.2-0.1,0.4-0.1
				c0.1,0,0.2-0.1,0.4-0.1c0.1,0,0.2-0.1,0.4-0.1c0.3-0.1,0.6-0.3,0.9-0.4c0.1-0.1,0.2-0.1,0.3-0.2c0.5-0.3,0.9-0.7,1.3-1.2
				c0.1-0.1,0.1-0.2,0.2-0.3c0.1-0.1,0.2-0.2,0.2-0.3c0,0,0,0,0,0l51.3-84.7l11.6,2.4l8,38.3c0,0.1,0,0.2,0.1,0.3c0,0,0,0.1,0,0.1
				c0.1,0.4,0.2,0.8,0.4,1.2c0.1,0.2,0.2,0.3,0.3,0.5c0.4,0.6,0.9,1.2,1.5,1.6c0.2,0.1,0.4,0.3,0.5,0.4c0.1,0.1,0.2,0.1,0.3,0.2
				c0.1,0.1,0.2,0.1,0.4,0.2c0.1,0.1,0.3,0.1,0.4,0.2c0,0,0,0,0,0c0.1,0.1,0.3,0.1,0.4,0.1c0.3,0.1,0.6,0.2,1,0.2c0.2,0,0.4,0,0.6,0
				h71c3.3,0,6-2.6,6-5.9c0-3.3-2.5-6-5.8-6.1l-25.4-0.8l-40.4-1.2l-3.4-41.5c0-0.7-0.2-1.4-0.5-2.1l-22.6-48.4h31.6l20.5,27.8
				c1.9,2.6,5.6,3.2,8.3,1.3c2.7-1.9,3.3-5.6,1.5-8.3l-22-32c-1.1-1.6-3-2.6-5-2.6h-59.7c-5.6,0-10.6,2.6-14,6.6l-24.9,28.9
				l-27.5,0.5L704.5,730.6L704.5,730.6z M313.7,776.7l46.4-46.4h50.2l-28.6,28.6h308.9v35.5H381.7l28.7,28.7h-50.2l-21.3-21.3
				L313.7,776.7z"/>
			<path class="st38" d="M736.9,765.8c1.7,11.1,15,24.3,17.6,24.3c3,0,19.1-13.6,17.8-29.7c-1.1-13.6-11.3-20.6-21-19.1
				C741.5,742.8,735.1,753.7,736.9,765.8z M758,770.9c4.4-5.7,9.8-5.4,9.8-5.4s0,4.4-3.7,9.9c-3.4,5.1-9.3,8-9.3,8
				S754.1,776,758,770.9z M737.6,765.6c0,0,5.4-0.3,9.8,5.4c4,5,3.2,12.5,3.2,12.5s-5.9-2.9-9.3-8
				C737.6,770,737.6,765.6,737.6,765.6z"/>
		</g>
		<g>
			<path class="st15" d="M317.5,937.5v-65.6h29.1c5.8,0,10.3,0.6,13.3,1.8c3,1.2,5.5,3.3,7.3,6.2c1.8,3,2.7,6.3,2.7,9.9
				c0,4.7-1.5,8.6-4.5,11.8c-3,3.2-7.7,5.2-14,6.1c2.3,1.1,4,2.2,5.2,3.3c2.5,2.3,4.9,5.2,7.2,8.7l11.4,17.9h-10.9l-8.7-13.7
				c-2.5-3.9-4.6-7-6.3-9c-1.6-2.1-3.1-3.6-4.4-4.4c-1.3-0.8-2.6-1.4-4-1.7c-1-0.2-2.6-0.3-4.8-0.3h-10.1v29.1L317.5,937.5
				L317.5,937.5z M326.2,900.8h18.7c4,0,7.1-0.4,9.3-1.2c2.2-0.8,3.9-2.1,5.1-3.9c1.2-1.8,1.7-3.8,1.7-5.9c0-3.1-1.1-5.7-3.4-7.7
				c-2.3-2-5.8-3-10.7-3h-20.8V900.8z"/>
			<path class="st15" d="M383.8,937.5v-65.6h47.4v7.7h-38.8v20.1h36.3v7.7h-36.3v22.3h40.3v7.7L383.8,937.5L383.8,937.5z"/>
			<path class="st15" d="M461.4,937.5v-57.9h-21.6v-7.7h52v7.7h-21.7v57.9H461.4z"/>
			<path class="st15" d="M543.8,871.9h8.7v37.9c0,6.6-0.7,11.8-2.2,15.7c-1.5,3.9-4.2,7-8.1,9.5c-3.9,2.4-9,3.6-15.3,3.6
				c-6.1,0-11.2-1.1-15.1-3.2c-3.9-2.1-6.7-5.2-8.4-9.2c-1.7-4-2.5-9.5-2.5-16.4v-37.9h8.7v37.9c0,5.7,0.5,9.9,1.6,12.6
				c1.1,2.7,2.9,4.8,5.5,6.2c2.6,1.5,5.7,2.2,9.5,2.2c6.4,0,10.9-1.4,13.7-4.3c2.7-2.9,4.1-8.5,4.1-16.7L543.8,871.9L543.8,871.9z"
				/>
			<path class="st15" d="M567.1,937.5v-65.6h29.1c5.8,0,10.3,0.6,13.3,1.8c3,1.2,5.5,3.3,7.3,6.2c1.8,3,2.7,6.3,2.7,9.9
				c0,4.7-1.5,8.6-4.5,11.8c-3,3.2-7.7,5.2-14,6.1c2.3,1.1,4,2.2,5.2,3.3c2.5,2.3,4.9,5.2,7.2,8.7l11.4,17.9H614l-8.7-13.7
				c-2.5-3.9-4.6-7-6.3-9c-1.6-2.1-3.1-3.6-4.4-4.4c-1.3-0.8-2.6-1.4-4-1.7c-1-0.2-2.6-0.3-4.8-0.3h-10.1v29.1L567.1,937.5
				L567.1,937.5z M575.7,900.8h18.7c4,0,7.1-0.4,9.3-1.2c2.2-0.8,3.9-2.1,5.1-3.9c1.2-1.8,1.7-3.8,1.7-5.9c0-3.1-1.1-5.7-3.4-7.7
				c-2.3-2-5.8-3-10.7-3h-20.8V900.8z"/>
			<path class="st15" d="M633,937.5v-65.6h8.9l34.5,51.5v-51.5h8.3v65.6h-8.9l-34.5-51.6v51.6H633z"/>
		</g>
	</g>
	<text transform="matrix(1 0 0 1 -68.6904 1111.9508)" class="st32 st29" style="font-size:24px;">RETURN</text>
	<text transform="matrix(1 0 0 1 -78.6406 1180.5026)" class="st32 st29" style="font-size:24px;">RETURN</text>
	<g class="st1">
		<path class="st15" d="M227.4,1126.5c0-7.5-1.9-12.3-5.9-14.7c9.1,0,14.9,3.1,17.1,9.3c0.2-0.9,0.5-1.7,0.9-2.6
			c1.2-4.4,5.1-6.5,11.6-6.5h17.2c3.2,0,5.7,1.5,7.5,4.4c1.6,2.9,2.7,5.8,3,8.8c0.1,0.8,0.1,1.7,0.1,2.4c0,6.1-2.3,13.1-6.2,17
			c-1.2,1.2-3,3-5.5,5.4c-3.2,3.1-6.4,6.2-8.1,7.9c-6.9,6.5-10.9,12.3-12,17.3c-0.1,0.6-0.1,1.3-0.1,1.8c0,2.6,1.1,5.9,2.6,7.1
			c-5.1-4.6-7.6-9.6-7.6-15.4c0-0.7,0.2-2.9,0.7-6.6c0.4-3.7,2.2-7.3,5.6-10.7c1-1,2.2-2.1,3.7-3.6c4.6-4.1,9.4-8.9,14.5-14.6
			c5-5.6,7.5-10.5,7.5-14.6c0-0.1,0-0.1,0-0.2c-1.1-3.4-3.9-5.1-8.3-5.1H251c-5.8,0-9.2,1.9-10.2,5.7c-1,2.7-1.5,5.4-1.5,8.1
			c0.1,12,0.1,24,0.1,36c0,6,0,12,0,18.1c-0.1,9.1-0.1,18.3-0.1,27.4c0,5.9,1.4,9.7,4.2,11.4c2.8,1.7,6.5,2.4,11.3,2.4h8.8l7.5-7.4
			l8.2,8.2l-8.2,8.2l-7.5-7.4h-18.4c-11.5,0-17.4-5.2-17.9-15.4v-81.6C227.4,1127,227.4,1126.7,227.4,1126.5z M267.9,1157.3
			c0,3.6,3,9.4,12.3,16.6c4.7,3.6,9,6.7,13.1,9.3c1.8,1.1,3.2,2,4.4,2.9c8.2,6.2,12.2,14.3,12.2,24.3c0,0.4-0.1,3.2-0.3,8.6
			c-0.1,5.4-3.9,12.2-11.2,20.3c-6.5,6.5-14.3,9.7-23.5,9.7h-24.5c-3.4,0-5.8,0-7.3-0.1c-10.3,0-15.4-5.1-15.4-15.3
			c0-0.9,0-1.7,0.1-2.6c2.2,4,7.1,5.9,14.7,5.9c0.2,0,0.4,0,0.7,0h34.1c16.5,0,25.5-3.2,26.9-9.5c0.9-2.6,1.4-5.1,1.4-7.8
			c0-5.1-1.8-10.2-5.4-15.1c-3.2-3.7-8.1-8-14.6-12.7c-6.5-4.8-12.4-8.9-17.7-12.5c-0.6-0.4-1.2-0.8-1.7-1.1c-3.6-3-5.5-5.6-5.7-7.9
			c-0.2-2.3-0.3-3.8-0.3-4.3c0-3.3,0.9-5.9,2.7-8c1.7-1.7,3.5-3.4,5.2-5.1c0.6-0.6,1.2-1.2,1.7-1.7
			C268.6,1153.3,267.9,1155.3,267.9,1157.3z"/>
		<path class="st15" d="M301.6,1165c0-0.4,0.4-0.7,0.8-0.7h23.2c3.2-10.5,8.3-20.4,15.1-29.7c6.8-9.3,15.4-16.1,25.8-20.4
			c3.6-1.4,6.6-2,8.9-2.1c2.2,0,3.5-0.1,3.7-0.1c4.2,0,7.9,1.3,10.9,3.6c3,2.3,4.5,6.2,4.5,11.8c0.1,14.3,0.1,28.6,0.1,42.9
			c0,7.2,0,14.3,0,21.5c0,8.6,0,17.3,0,25.9c0,0.5,0,1,0,1.5c0,5-1.5,8.9-4.4,12.1l-2.7,2.7l7.1,7.2l-8.2,8.2l-8.2-8.2
			c2.8-3.2,4.3-7.2,4.3-12c0-0.7,0-1.4-0.1-2v-99.7c0-0.3,0-0.6,0-0.9c0-8-3.2-12.2-8.6-12.2c-0.9,0-1.7,0.1-2.7,0.3
			c-1.5,0.3-2.8,0.8-4.2,1.3c-5.7,2.5-11.2,8.6-16.3,18.3c-5.2,9.6-9.4,19.8-12.7,30.4h21.8l7.4-7.5l8.2,8.2l-8.2,8.3l-7.4-7.5
			c-17.4,0-34.8,0-52.2,0c4.8,2,9.8,5.4,15,10c0.5-2.5,1.2-5.1,1.9-7.8h12.4c-1.2,4.1-2,7.8-2.7,11.2c-0.5,2.3-0.9,4.7-1.2,7
			c7.7,8.3,15.4,18.8,23,31.5c7.7,12.7,11.6,24.5,11.6,35.4c0,0.9-0.1,1.7-0.1,2.4c-1.6,10.8-4.3,16.6-8.1,17.5
			c-3.9,1-6.4,1.5-7.5,1.5c-5.6,0-11.5-3.2-17.5-9.6c-3.9-4.3-7.3-10-10.1-17.1c-3.5-10.3-5.2-22.3-5.2-35.8c0-10.5,1.1-22,3.1-34.4
			c-7.3-6.6-13.9-10.5-19.9-11.8C301.9,1165.8,301.6,1165.5,301.6,1165z M331.2,1211.9c0,12.3,1.5,22.8,4.5,31.5
			c2.2,5.6,4.8,10.1,7.8,13.3c4.4,4.7,10.4,6.7,14.1,6.7c1.2,0,2.7-0.3,4.6-0.8c1.9-0.6,3.2-2.8,3.9-6.8c0.1-1,0.1-1.9,0.1-2.9
			c0-10.5-3.7-22-11.1-34.2c-7.4-12.3-14.8-22.5-22.2-30.6C331.6,1196.7,331.2,1204.6,331.2,1211.9z"/>
		<path class="st15" d="M414.2,1229c-8.3-13.4-12.3-29.6-12.3-48.6s4.1-35.1,12.3-48.5c8.2-13.4,18.1-20.1,29.6-20.1
			c14.1,0,25.6,9.6,34.2,28.8c1.2,2.3,1.7,4.4,1.7,6c0,4.2-3.8,6.3-11.4,6.3c-0.2,0-0.3,0-0.5,0h-7.1c4-1.7,6.1-3.6,6.4-6
			c0.4-2.4,0.6-4.1,0.6-5.1c0-2.9-0.7-5.7-1.9-8.6c-6-13.2-13.4-19.8-22.1-19.8c-8.3,0-15.4,6-21.2,18.1
			c-5.8,12.1-8.7,26.7-8.7,43.7c0,17.1,2.9,31.7,8.7,43.7c5.8,12.1,12.9,18.2,21.2,18.2h9.3c0.6,0,1.3,0.1,1.8,0.1
			c5,0,9-1.6,12.2-4.5l8.2,8.3l-8.2,8.2l-7.1-7.1l-2.8,2.7c-3.2,2.9-7.3,4.4-12.2,4.4c-0.4,0-0.9,0-1.3,0
			C432.3,1249.2,422.4,1242.4,414.2,1229z"/>
		<path class="st15" d="M524.9,1167.5c6.4,0.1,11.7,2.4,15.6,6.8c3.4,4.2,7.8,11.8,13.1,22.5c5.3,10.9,10.3,21.4,15,31.6
			c3,6.3,5.3,11.4,7.1,15c0.5,0.9,0.9,1.8,1.4,2.7c3,6.9,6.7,13,11.1,18.2c4.3,5.1,10.7,8.1,19.3,8.6c-3.8,1-7.4,1.5-10.8,1.5
			c-4.5,0-9.3-1.1-14.7-3.3c-5.3-2.2-11.3-9.5-18-22.1c-5.6-11-11-22-16.1-33c-3.8-8.1-7.7-16.1-11.8-24.4
			c-3.2-7.1-6.5-12.6-9.8-16.6c-3.4-4-8.6-6-15.6-6h-6.5c-1.8,3.5-2.7,7.1-2.7,10.9v37.6c0,5.5-1.5,10.1-4.3,13.5l-2.8,2.8l7.1,7.1
			l-8.2,8.2l-8.2-8.2c2.8-3.6,4.3-8.4,4.3-14.1v-99.5c0-0.4,0-0.7,0-1.1c0-7.2-1.9-12-5.9-14.3c11.6,0,17.5,5.1,18,15.4v27.4
			c1.9-3.1,4.6-5.8,7.8-8.1c1.2-0.9,2.6-1.8,4.4-3c4.1-2.5,8.5-5.6,13.1-9.2c4.7-3.6,7.9-6.8,9.7-9.7c1.7-2.9,2.6-5.2,2.6-7
			c0-1.9-0.7-3.9-2-5.7c0.6,0.6,1.2,1.2,1.7,1.7c1.8,1.7,3.5,3.5,5.2,5.1c1.8,2,2.7,4.7,2.7,7.9c0,0.6-0.1,1.9-0.3,4.3
			c-0.2,2.3-2,5-5.6,7.9c-0.5,0.4-1.1,0.8-1.7,1.2c-5.3,3.6-11.2,7.8-17.7,12.5c-6.5,4.8-11.4,9-14.7,12.7c-0.7,0.7-1.3,1.5-1.7,2.3
			L524.9,1167.5L524.9,1167.5z"/>
	</g>
	<path class="st36" d="M188.4,444.2l-21,43c-1,2.1-3.1,3.4-5.4,3.4c-0.4,0-0.7,0-1.1-0.1c-2.6-0.5-4.6-2.7-4.9-5.3l-4.5-48
		c-0.2-1.9,0.5-3.7,1.9-5c1.4-1.3,3.3-1.8,5.2-1.4l25.5,5c1.8,0.4,3.4,1.5,4.2,3.2S189.2,442.6,188.4,444.2z"/>
	<polygon class="st37" points="-28,493.1 -32.5,445.1 -7,450.1 	"/>
	
		<ellipse transform="matrix(0.1369 -0.9906 0.9906 0.1369 -323.5058 567.1988)" class="st32" cx="163.7" cy="469.2" rx="5.4" ry="2.4"/>
	
		<ellipse transform="matrix(0.1369 -0.9906 0.9906 0.1369 -317.6601 576.1337)" class="st32" cx="171.8" cy="470.4" rx="5.4" ry="2.4"/>
</g>
<g id="Layer_6">
	<g>
		<polygon class="st40" points="101.1,61.5 367.6,61.5 367.6,92.1 101.1,92.1 125.8,116.8 82.5,116.8 64.1,98.5 42.5,76.8 
			82.5,36.8 125.8,36.8 		"/>
		<path class="st40" d="M515.7,197.5V234l25.5,32.4H436.5l-21.6-26.8c-1.8-2.2-5-2.6-7.3-0.8c-2.2,1.8-2.6,5.1-0.8,7.3l16.4,20.3
			H405L379.4,234V132.7l26.7,0.3h0c1.5,0,2.9-0.6,3.9-1.7l13.8-15.4l1.8-2l3.7,6.8l11.7,21.2c0.2,1.3,0.2,2.8,0.1,3.4
			c-1.8,4.1-24.8,48.3-40.1,77.6c-0.1,0.1-0.1,0.2-0.2,0.3c0,0.1-0.1,0.2-0.1,0.3c0,0.1-0.1,0.1-0.1,0.2c0,0.1,0,0.1-0.1,0.2
			c0,0.1-0.1,0.1-0.1,0.2c0,0.1-0.1,0.2-0.1,0.3c-0.1,0.2-0.1,0.4-0.1,0.6c0,0.4,0,0.8,0,1.3c0,0.1,0,0.2,0,0.3c0,0.1,0,0.1,0,0.2
			c0,0.1,0,0.1,0.1,0.2c0,0.1,0.1,0.2,0.1,0.3c0,0.1,0.1,0.2,0.1,0.3c0,0.1,0.1,0.2,0.2,0.4c0.1,0.1,0.1,0.2,0.1,0.2
			c0,0.1,0.1,0.1,0.1,0.2c0,0,0.1,0.1,0.1,0.1c0.1,0.1,0.1,0.2,0.2,0.3c0.1,0.1,0.1,0.2,0.2,0.2c0.1,0.1,0.3,0.3,0.4,0.4
			c0.1,0.1,0.3,0.2,0.4,0.3c0.1,0.1,0.2,0.1,0.3,0.2c0,0,0,0,0,0c0.1,0.1,0.2,0.1,0.3,0.2c0.1,0,0.2,0.1,0.3,0.1c0,0,0.1,0,0.1,0.1
			c0.1,0,0.2,0.1,0.3,0.1c0.1,0,0.1,0,0.2,0.1c0.1,0,0.2,0.1,0.3,0.1c0.1,0,0.1,0,0.2,0c0.1,0,0.2,0,0.3,0c0.1,0,0.2,0,0.4,0
			c0.1,0,0.2,0,0.4,0c0.2,0,0.4,0,0.7,0c0.1,0,0.2,0,0.3,0s0.2,0,0.3-0.1c0.1,0,0.2-0.1,0.3-0.1c0.1,0,0.2-0.1,0.3-0.1
			c0.3-0.1,0.5-0.2,0.8-0.4c0.1,0,0.2-0.1,0.2-0.2c0.4-0.3,0.8-0.6,1.1-1c0.1-0.1,0.1-0.2,0.2-0.2c0.1-0.1,0.1-0.2,0.2-0.3
			c0,0,0,0,0,0l44.2-73.1l10,2l6.9,33c0,0.1,0,0.2,0,0.2c0,0,0,0.1,0,0.1c0.1,0.4,0.2,0.7,0.4,1c0.1,0.1,0.1,0.3,0.2,0.4
			c0.3,0.5,0.8,1,1.3,1.4c0.1,0.1,0.3,0.2,0.5,0.3c0.1,0,0.2,0.1,0.2,0.1c0.1,0,0.2,0.1,0.3,0.2c0.1,0,0.2,0.1,0.4,0.1c0,0,0,0,0,0
			c0.1,0,0.2,0.1,0.4,0.1c0.3,0.1,0.6,0.1,0.9,0.2c0.2,0,0.3,0,0.5,0h61.2c2.8,0,5.1-2.3,5.2-5.1c0-2.8-2.2-5.2-5-5.2l-21.9-0.7
			l-34.8-1.1l-2.9-35.8c0-0.6-0.2-1.2-0.5-1.8L458,103.1h27.3l17.7,24c1.7,2.3,4.9,2.8,7.2,1.1c2.3-1.6,2.9-4.8,1.3-7.1l-19-27.6
			c-1-1.4-2.6-2.2-4.3-2.2h-51.5c-4.9,0-9.2,2.2-12,5.7l-21.5,24.9l-23.7,0.4V37h136.3v143.5l22,0.7c4.4,0.1,7.9,3.8,7.9,8.2
			c-0.1,4.4-3.7,8-8.1,8L515.7,197.5L515.7,197.5z"/>
		<path class="st15" d="M568.5,273.6c0,8-8.5,14.4-19,14.4H49.7c-10.5,0-19-6.5-19-14.4v-245c0-8,8.5-14.4,19-14.4h499.8
			c10.5,0,19,6.5,19,14.4L568.5,273.6L568.5,273.6z"/>
		<path class="st38" d="M566,9.4H33.1c-9.4,0-17,7.6-17,17v249.4c0,9.4,7.6,17,17,17H566c9.4,0,17-7.6,17-17V26.4
			C583,17,575.4,9.4,566,9.4z M367.6,61.5v30.6H101.1l24.7,24.7H82.5L64.1,98.5L42.5,76.8l40-40h43.3l-24.7,24.7H367.6z
			 M537.5,197.5h-21.8V234l25.5,32.4H436.5l-21.6-26.8c-1.8-2.2-5-2.6-7.3-0.8c-2.2,1.8-2.6,5.1-0.8,7.3l16.4,20.3H405L379.4,234
			V132.7l26.7,0.3h0c1.5,0,2.9-0.6,3.9-1.7l13.8-15.4l1.8-2l3.7,6.8l11.7,21.2c0.2,1.3,0.2,2.8,0.1,3.4
			c-1.8,4.1-24.8,48.3-40.1,77.6c-0.1,0.1-0.1,0.2-0.2,0.3c0,0.1-0.1,0.2-0.1,0.3c0,0.1-0.1,0.1-0.1,0.2c0,0.1,0,0.1-0.1,0.2
			c0,0.1-0.1,0.1-0.1,0.2c0,0.1-0.1,0.2-0.1,0.3c-0.1,0.2-0.1,0.4-0.1,0.6c0,0.4,0,0.8,0,1.3c0,0.1,0,0.2,0,0.3c0,0.1,0,0.1,0,0.2
			c0,0.1,0,0.1,0.1,0.2c0,0.1,0.1,0.2,0.1,0.3c0,0.1,0.1,0.2,0.1,0.3c0,0.1,0.1,0.2,0.2,0.4c0.1,0.1,0.1,0.2,0.1,0.2
			c0,0.1,0.1,0.1,0.1,0.2c0,0,0.1,0.1,0.1,0.1c0.1,0.1,0.1,0.2,0.2,0.3c0.1,0.1,0.1,0.2,0.2,0.2c0.1,0.1,0.3,0.3,0.4,0.4
			c0.1,0.1,0.3,0.2,0.4,0.3c0.1,0.1,0.2,0.1,0.3,0.2c0,0,0,0,0,0c0.1,0.1,0.2,0.1,0.3,0.2c0.1,0,0.2,0.1,0.3,0.1c0,0,0.1,0,0.1,0.1
			c0.1,0,0.2,0.1,0.3,0.1c0.1,0,0.1,0,0.2,0.1c0.1,0,0.2,0.1,0.3,0.1c0.1,0,0.1,0,0.2,0c0.1,0,0.2,0,0.3,0c0.1,0,0.2,0,0.4,0
			c0.1,0,0.2,0,0.4,0c0.2,0,0.4,0,0.7,0c0.1,0,0.2,0,0.3,0s0.2,0,0.3-0.1c0.1,0,0.2-0.1,0.3-0.1c0.1,0,0.2-0.1,0.3-0.1
			c0.3-0.1,0.5-0.2,0.8-0.4c0.1,0,0.2-0.1,0.2-0.2c0.4-0.3,0.8-0.6,1.1-1c0.1-0.1,0.1-0.2,0.2-0.2c0.1-0.1,0.1-0.2,0.2-0.3
			c0,0,0,0,0,0l44.2-73.1l10,2l6.9,33c0,0.1,0,0.2,0,0.2c0,0,0,0.1,0,0.1c0.1,0.4,0.2,0.7,0.4,1c0.1,0.1,0.1,0.3,0.2,0.4
			c0.3,0.5,0.8,1,1.3,1.4c0.1,0.1,0.3,0.2,0.5,0.3c0.1,0,0.2,0.1,0.2,0.1c0.1,0,0.2,0.1,0.3,0.2c0.1,0,0.2,0.1,0.4,0.1c0,0,0,0,0,0
			c0.1,0,0.2,0.1,0.4,0.1c0.3,0.1,0.6,0.1,0.9,0.2c0.2,0,0.3,0,0.5,0h61.2c2.8,0,5.1-2.3,5.2-5.1c0-2.8-2.2-5.2-5-5.2l-21.9-0.7
			l-34.8-1.1l-2.9-35.8c0-0.6-0.2-1.2-0.5-1.8L458,103.1h27.3l17.7,24c1.7,2.3,4.9,2.8,7.2,1.1c2.3-1.6,2.9-4.8,1.3-7.1l-19-27.6
			c-1-1.4-2.6-2.2-4.3-2.2h-51.5c-4.9,0-9.2,2.2-12,5.7l-21.5,24.9l-23.7,0.4V37h136.3v143.5l22,0.7c4.4,0.1,7.9,3.8,7.9,8.2
			C545.5,193.9,541.9,197.5,537.5,197.5z"/>
		<path class="st38" d="M407.4,67.4c1.5,9.6,13,20.9,15.2,21c2.6,0,16.5-11.7,15.3-25.6c-1-11.8-9.7-17.8-18.1-16.5
			C411.4,47.5,405.8,57,407.4,67.4z M425.6,71.8c3.8-4.9,8.5-4.6,8.5-4.6s0,3.8-3.2,8.5c-2.9,4.4-8,6.9-8,6.9S422.2,76.2,425.6,71.8
			z M408,67.2c0,0,4.7-0.2,8.5,4.6c3.4,4.3,2.7,10.8,2.7,10.8s-5.1-2.5-8-6.9C408,71,408,67.2,408,67.2z"/>
		<g>
			<path class="st15" d="M45.7,215.5v-56.6h25.1c5,0,8.9,0.5,11.5,1.5c2.6,1,4.7,2.8,6.3,5.4c1.6,2.6,2.4,5.4,2.4,8.5
				c0,4-1.3,7.4-3.9,10.2c-2.6,2.8-6.6,4.5-12,5.2c2,1,3.5,1.9,4.5,2.8c2.2,2,4.3,4.5,6.2,7.5l9.8,15.4h-9.4l-7.5-11.8
				c-2.2-3.4-4-6-5.4-7.8c-1.4-1.8-2.7-3.1-3.8-3.8c-1.1-0.7-2.3-1.2-3.4-1.5c-0.9-0.2-2.2-0.3-4.2-0.3h-8.7v25.1L45.7,215.5
				L45.7,215.5z M53.2,183.8h16.1c3.4,0,6.1-0.4,8-1.1c1.9-0.7,3.4-1.8,4.4-3.4c1-1.6,1.5-3.2,1.5-5.1c0-2.7-1-4.9-2.9-6.6
				c-1.9-1.7-5-2.6-9.2-2.6H53.2C53.2,165.1,53.2,183.8,53.2,183.8z"/>
			<path class="st15" d="M102.9,215.5v-56.6h40.9v6.7h-33.4v17.3h31.3v6.6h-31.3v19.3h34.7v6.7L102.9,215.5L102.9,215.5z"/>
			<path class="st15" d="M169.8,215.5v-49.9h-18.6v-6.7h44.9v6.7h-18.7v49.9H169.8z"/>
			<path class="st15" d="M240.9,158.9h7.5v32.7c0,5.7-0.6,10.2-1.9,13.5c-1.3,3.3-3.6,6.1-7,8.2c-3.4,2.1-7.8,3.1-13.2,3.1
				c-5.3,0-9.6-0.9-13-2.7c-3.4-1.8-5.8-4.5-7.2-7.9c-1.4-3.5-2.2-8.2-2.2-14.2v-32.7h7.5v32.7c0,4.9,0.5,8.5,1.4,10.9
				c0.9,2.3,2.5,4.1,4.7,5.4c2.2,1.3,4.9,1.9,8.2,1.9c5.5,0,9.4-1.2,11.8-3.7c2.3-2.5,3.5-7.3,3.5-14.4L240.9,158.9L240.9,158.9z"/>
			<path class="st15" d="M260.9,215.5v-56.6H286c5,0,8.9,0.5,11.5,1.5s4.7,2.8,6.3,5.4c1.6,2.6,2.4,5.4,2.4,8.5
				c0,4-1.3,7.4-3.9,10.2s-6.6,4.5-12,5.2c2,1,3.5,1.9,4.5,2.8c2.2,2,4.3,4.5,6.2,7.5l9.8,15.4h-9.4l-7.5-11.8c-2.2-3.4-4-6-5.4-7.8
				c-1.4-1.8-2.7-3.1-3.8-3.8c-1.1-0.7-2.3-1.2-3.4-1.5c-0.9-0.2-2.2-0.3-4.2-0.3h-8.7v25.1L260.9,215.5L260.9,215.5z M268.4,183.8
				h16.1c3.4,0,6.1-0.4,8-1.1c1.9-0.7,3.4-1.8,4.4-3.4c1-1.6,1.5-3.2,1.5-5.1c0-2.7-1-4.9-2.9-6.6c-1.9-1.7-5-2.6-9.2-2.6h-17.9
				L268.4,183.8L268.4,183.8z"/>
			<path class="st15" d="M317.8,215.5v-56.6h7.7l29.7,44.4v-44.4h7.2v56.6h-7.7L325,171v44.5H317.8z"/>
		</g>
	</g>
</g>
</svg>
